<svg xmlns="http://www.w3.org/2000/svg" viewBox="0 0 2000 2000"><style>.st1{fill:#fff}.st3{fill:#ffaf82}.st4{fill:#c0473f}.st5{fill:#f96}.st6{fill:#f78552}.st7{fill:#1581ff}.st8{fill:#0a64bf}.st9{fill:#1593ff}.st10{fill:#ffeeae}.st11{fill:#ffab34}.st12{fill:#ffba34}.st14{fill:#8aa816}.st15{fill:#29bcff}.st16{fill:#a5a816}.st18{fill:#e77046}.st19{fill:#d15b37}.st20{fill:#c1512f}.st21{fill:#ffa816}.st23{fill:#2b0fff}.st24{fill:#679208}.st25{fill:#ffffc5}.st26{fill:#ffe3d1}</style><switch><g><g id="Layer_4"><path d="M1429.9 529.2c-13.7-.1-27.2.6-40.6 2-48.7 5.1-97.1-12.7-136.3-48.9-58-53.6-130-85.3-207.9-85.3-80.3 0-154.2 33.6-213 90.1-44.7 42.9-101.7 60.6-157.5 49.4-22.6-4.6-45.7-7-69.2-7.2-245.8-1.8-444.8 242.3-445.1 545.9-.2 302.1 197.9 547 442.4 547 68.8 0 134-19.4 192.1-54.1 139.1-83 301-83 440.1 0 58.1 34.6 123.3 54.1 192.1 54.1 242.8 0 439.9-241.5 442.4-540.6 2.6-302.1-195-550.5-439.5-552.4z" fill="#c7f8ff"/><path class="st1" d="M1653 1457.5c1.3-3.4 2-7 2.2-10.7.9-17.8-12.8-32.9-30.6-33.8-11-.6-21 4.5-27.2 12.6.4-2.3.6-4.7.8-7.1 1.8-35.6-25.6-65.9-61.2-67.6-19.7-1-37.8 7-50.4 20.4-8.9-32.9-38.2-57.8-74-59.6-42.2-2.1-78.5 28.5-84.2 69.6-7.4-5.2-16.3-8.4-26-8.9-27.7-1.4-51.2 19.9-52.6 47.6v.6c-6.9-7.8-16.8-12.9-28-13.5-22.1-1.1-40.9 15.9-42 38-1.7 34.4 31.7 42.8 59.1 44.8 87.2 6.5 174.6-1.7 261.8-4.9 20.6-.8 41.2-1.4 61.8-2 19.1-.6 38.4-.9 57.4-3.2 7.1-.9 14.3-2.5 20.3-6.3 5.9-3.7 10.3-9.5 12.8-16zM631.6 689.2c3.2-8.5.4-18.8-7.6-23.9-2.9-1.8-6.2-2.9-9.6-3.1-6.7-.3-12.8 2.7-16.6 7.7.2-1.4.4-2.9.5-4.3 1.1-21.6-15.6-40-37.2-41.1-12-.6-23 4.3-30.6 12.4-5.4-20-23.2-35.1-45-36.2-25.7-1.3-47.7 17.3-51.2 42.3-4.5-3.1-9.9-5.1-15.8-5.4-16.8-.8-31.2 12.1-32 28.9v.4c-4.2-4.7-10.2-7.9-17-8.2-13.4-.7-24.9 9.7-25.6 23.1-1.1 20.9 19.8 23 35.9 27.3 56.1 15 95.2 21 147.9 14.8 13.4-1.6 26.8-3.8 40-6.6 9.5-2 18.8-4.4 28.1-6.9 6.1-1.6 12.2-3.3 17.8-6.1 5.2-2.5 10.5-4.6 14.4-9 1.6-1.9 2.8-3.9 3.6-6.1z"/></g><g id="Layer_5"><g id="head_4_"><path d="M389.7 1254.9s-1.9 17.7 6.7 32-22.8 11.5-27.2 7.6-3.3-47.9-3.3-47.9l23.8 8.3z" fill="#f2986b"/><path class="st3" d="M345.1 1194.3s-7.8 14.5 2.3 33.3c8.7 16.1 33.6 37.5 53.1 32.1 26.5-7.3 37.4-22.8 18.3-46.3-19.1-23.5-45.6-52.7-73.7-19.1z"/><path class="st4" d="M385.1 1182.3s-14.2 51.7-23.4 41.6c-11.7-12.9-13 14 1.9 18.8 14.2 4.6 4.7 21.7-3.3 17.1-8-4.6-29.2-2.3-41.4-14.4-12.2-12.1-14.3-64.9 14.6-69.6 28.8-4.7 44.4-26.1 51.6 6.5z"/><ellipse transform="rotate(-45.637 393.205 1210.913)" class="st4" cx="393.3" cy="1211" rx="3.2" ry="6.4"/><path class="st5" d="M408.7 1201.5s14.3 8.9 22.8 8c0 0-9.7 9.2-13 7.3s-9.8-15.3-9.8-15.3z"/><ellipse transform="rotate(-30.072 399.896 1225.533)" class="st5" cx="399.8" cy="1225.4" rx="10.6" ry="4.4"/><path class="st6" d="M420.6 1235.3c-3.6 2.7-9.2 5.3-15.3 2.2-.5-.3-.7-.9-.5-1.4.3-.5.9-.7 1.4-.5 8.7 4.5 16.4-5 16.7-5.4.4-.5 1-.5 1.5-.2.5.4.5 1 .2 1.5 0 0-1.5 1.9-4 3.8zM384.1 1208.3c-.1.1-.3.2-.5.2-.6.1-1.1-.3-1.2-.9 0-.2-.7-5.4 4.8-8.8.5-.3 1.2-.2 1.5.3s.2 1.2-.3 1.5c-4.3 2.7-3.8 6.6-3.8 6.7-.1.4-.2.7-.5 1z"/></g><g id="leg_l1_2_"><path class="st7" d="M368 1512.5l167-27.3 9.4-18.3c-3.3-60.5-178.6-34-181.6-6.4-3 27.4 5.2 52 5.2 52z"/><path class="st8" d="M408.7 1467.4H469c1.4 0 1.4-2.1 0-2.1h-60.3c-1.4 0-1.4 2.1 0 2.1z"/></g><g id="leg_r1_2_"><path class="st9" d="M438.6 1428.5s-20.5 235.4-44.4 231.1c0 0-35.8-20.4-33.8-35.3 2-14.9-15.8-185.2 7.7-198s70.5 2.2 70.5 2.2z"/><path class="st7" d="M413.5 1463.8s-11.7 17.2-24.5 13.7c0 0-9.4 48.2 1.5 48.8 10.9.7 23.2-12.4 25.4-26.9 2.3-14.4-2.4-35.6-2.4-35.6z"/></g><path class="st3" d="M368.1 1318.2s90.8 48.7 109.2 31.1c18.4-17.6-7.8-16.8-25-24.2-32.8-14.3-77.8-35.9-77.8-35.9l-6.4 29z" id="hand_left_1_2_"/><path class="st4" d="M352.5 1332.6c-3.5-51.6.7-49.6 0-58.8-1.4-18.1 23.4 33.6 49.5 7.3l6.7 48.1c6.3 28.1 1.4 84 34.5 101l-14.7 9.2-19.1 1.2s-49.9 51.2-57 12c-4.8-26.9 2.2-84.8.1-120z"/><path class="st3" d="M368.6 1345.5s3 109.2 23.7 107c20.7-2.2 72.3-20.2 93.7-21.3 0 0-4.8-16.5-22.8-14.3-18 2.2-57.1 2.5-57.1 2.5L398 1327s-10-6.5-19.3 2c-11.3 10.5-10.1 16.5-10.1 16.5z" id="hand_right1_2_"/><g id="hand_left_2_2_"><path class="st3" d="M454.6 1341.1s39.3-85.4 47.6-116.3c8.3-30.9 11.7 37.5 3.8 60.6-7.9 23.1-25 94.5-51.4 55.7z"/><path class="st10" d="M494 1219.7c-8.1 4.1-13.3 12.7-12.4 21.8.6 6 3.6 10.9 12.4 9 20.1-4.4 22.5 1.4 28.4 17.6 5.9 16.3 5.7 29.4 17.9 20.5 12.2-8.9 20.2-11.1 20.5-24.2s-21.7-20.1-12.4-32.6c9.3-12.6 12.7-12.1.4-23.9-12.4-11.7-31.4-17-35.8-9.1s-13.2 17.9-18.8 20.8c-.1.1-.2.1-.2.1z"/><path class="st3" d="M513.1 1202.4s-9.5-3.2-16.2 4.3-4.2 28.5 1.1 23.1c5.4-5.4 20.8-17.1 15.1-27.4z"/></g><g id="shoe_1_2_"><path class="st11" d="M456.7 1644.2s-6.6 10.2-2.9 13.1c3.7 2.9 131 5.4 131 5.4l.8-3.8-128.9-14.7z"/><path class="st12" d="M497.3 1609.3s2.2 14.9 31.7 27.9c11.2 5 30.1 10.5 48.2 9.6 4.8-.2 8.8 3.6 8.6 8.4-.1 1.4-.1 2.8-.2 3.7l-121.9-4.5c-5.2-.2-8.7-5.3-7-10.3l15.6-45.5 25 10.7z"/><path class="st11" d="M538.6 1633.6c-4.1-2.6-8.9-5-13.7-3.2-4.6 1.7-6.3 6.4-6.9 10.9-.5 3.5 4.9 4.7 5.4 1.2.4-2.7.9-6.4 4.1-7.1 3.1-.7 6.1 1.5 8.6 3 2.9 1.9 5.5-3 2.5-4.8zM542.6 1650.3c2.1-5.3 7.6-7.3 12.5-4.3 3 1.8 5.6-3.1 2.6-4.9-7.3-4.4-16.8-1.3-19.9 6.6-1.4 3.3 3.5 5.9 4.8 2.6z"/></g><g id="leg_l2_2_"><path class="st7" d="M495.4 1461.3s-51.5 149.1-23.5 153.5c28 4.4 61.1-2.7 64.2-22.2 3.1-19.5 25.2-162.5-5.9-136.6-17.8 15-34.8 5.3-34.8 5.3z"/><path class="st8" d="M499.4 1602c4.7-14.1 9.4-28.2 14.1-42.4 6.6-19.6 13.3-39.6 12.8-60.5 0-1.4-2.2-1.4-2.1 0 .5 21.4-6.7 41.7-13.4 61.7-4.5 13.5-9 27.1-13.5 40.6-.4 1.3 1.7 1.9 2.1.6z"/></g><g id="leg_r_2_2_"><path class="st11" d="M211.5 1584.5l-6-1.7s-14.7 32-8.4 54.3c6.4 22.2 3.8 21.9 16.7 22.6 13 .8 46.8 0 46.8 0l-.9-2.9-24.3-4.7-19.7-15.9-4.2-51.7z"/><path class="st12" d="M287.3 1602.3s-37.3 3.5-75.8-17.8c-4.8-2.6-17.6 72.2 3 72.2h45.3c-5.5-9.9-41.4-5.3-29.8-35.6 2.8-7.3 57.8 6.8 57.8 6.8l-.5-25.6z"/><path class="st9" d="M389.2 1617.4s-115.5-54.4-127.3-40.6c-11.9 13.8-26.5 41.7-6.7 50.9s145.1 29 145.1 29l-11.1-39.3z"/><path class="st7" d="M268.9 1604.4c24.8 9.8 50.9 20.8 77.4 24.9 2.7.4 3.8-3.7 1.1-4.1-26.4-4-52.6-15.1-77.4-24.9-2.5-1-3.6 3.1-1.1 4.1z"/><g><path class="st11" d="M239.4 1639.7c-7.7-3.7-16.6-2.5-23 3.3-2.6 2.4 1.3 6.3 3.9 3.9 4.4-4.1 10.9-5.1 16.3-2.4 3.1 1.5 5.9-3.2 2.8-4.8z"/></g><g><path class="st11" d="M235.1 1630.2c1.6-5.1-4.3-6.1-7.9-7-4.6-1.2-9.7-2.4-13.3 1.7-2.3 2.7 1.6 6.6 3.9 3.9 1.8-2.1 4.5-1.2 6.9-.6 1.2.3 4.7 1.8 5.1.5-1.1 3.5 4.2 4.9 5.3 1.5z"/></g></g></g><g id="Layer_8"><path d="M1305 1046.7c-.7 51.2-11.1 102.2-30.2 149.8-17.8 44.3-43.3 85.6-75.8 121.4-68.1 75-159.5 118.9-254.5 130.7-41.8 5.2-84.2 4.2-125.6-3.1-23.5-4.1-46.7-10.3-69.3-18.5-33.3-12.2-65.3-28.8-94.8-49.9-19.6-14-38.1-30.1-55.3-48.1-20.4-21.4-38.2-44.9-53.2-70-3.8-6.4-7.5-12.8-10.9-19.4-9.6-18.1-17.8-36.9-24.6-56.2-21-59.9-28.4-124.5-20.5-187.9.3-2.4.6-4.8 1-7.2C512.4 841.2 616.2 722.7 753.8 670c95.5-36.6 195.9-35.7 284.7-4.3 72.2 25.6 136.6 71.3 184.4 133.6.2.2.3.4.5.6 23.2 30.4 42.4 64.7 56.6 102.4l1.8 4.8c.3.7.5 1.4.7 2.1.4 1 .8 2.1 1.1 3.2.8 2.2 1.5 4.3 2.2 6.5 2.2 6.8 4.3 13.7 6.1 20.6 9.3 34.9 13.6 71.1 13.1 107.2z" fill="#29cbff"/><path class="st14" d="M1285.7 918.7c-8.3-1-18.9-4.4-32.3-10.5-57.5-26.5-129.8 10.4-163.6-4.9-21.9-9.9 27 68.7 48.4 73.5 79.3 17.7 25.5 210.5 26.1 237.4.5 22.5 9.9 54.4-17.6 70-6.5 3.7-14.9 6.5-25.8 8-56.9 7.9-120.1-84.3-136.2-128.1-16.1-43.8-43.1-15.2-121.9-4.1-78.8 11.2-81.9-67.1-75-106.7 6.9-39.7 52.1-52.5 77-57.7 25-5.2 0-28.3 30.5-38.9.7-.2 1.3-.5 2-.7l2.1-.6c.6-.2 1.3-.3 2-.5.2 0 .3-.1.5-.1.6-.1 1.2-.3 1.9-.4.8-.2 1.6-.3 2.5-.5 1.6-.3 3.2-.6 4.8-.8 1-.2 2.1-.3 3.1-.4 1-.1 2.1-.3 3.2-.4h.2c1.1-.1 2.1-.2 3.2-.3 1.1-.1 2.2-.2 3.4-.3 1.4-.1 2.7-.2 4.1-.3l8.4-.6c1.4-.1 2.8-.2 4.3-.3 1.4-.1 2.9-.2 4.3-.3 1.4-.1 2.9-.2 4.3-.3 1.9-.1 3.8-.3 5.8-.4 1-.1 1.9-.2 2.9-.2l5.7-.6c1.9-.2 3.8-.4 5.6-.7 3.7-.5 7.4-1.1 10.9-1.8 12.4-2.5 23.4-6.7 31-14 25-23.9-10.9-59.5-37-66.2-9.7-2.5-15.5 5.2-20.5 15.8-8.4 17.7-14.5 43.2-33.5 41.3-30.3-3-54.1-18.4-55.6 1.6-1.4 20-36.3 57.6-67.7 47.3-7.1-2.3-9.7-12.6-9.4-27.4v-1.8-.6c0-.6.1-1.2.1-1.9v-.9c0-.9.1-1.8.2-2.7 0-.5.1-1 .1-1.5.1-1 .2-2 .3-3.1.2-2.1.4-4.2.7-6.4.1-.7.2-1.4.3-2 2.1-16.2 6-34.8 10.3-53.5.7-3 1.4-5.9 2.1-8.9 9.6-40.4 20.4-79.4 20.1-92.5-.5-22.1 59-26 109.2-33.5 18-2.7 34.8-5.8 47.2-10.4 45.4-16.8 39.9-40.2 60.3-59.3 51.2 19.3 98.6 46.7 138.2 83.1 49.4 45.5 87.3 104.4 108.8 170zM618.6 1040.2c-10.9 32.6-112.7 85.8-96 112.7 13.2 21.3 5.7 32.3-8.4 30.9-1.2-.1-2.5-.3-3.9-.7-15.1-42.7-23.3-88.6-23.3-136.4 0-19.9 1.4-39.5 4.2-58.7 10.2-.1 20.7-1.4 28.9-4.8 24-9.9 29.2-6.4 18.1 7.5-11.1 14-65.9 40.3-46.3 60.3 19.5 20.1 41.1-9.4 54.5-22.4 5.2-5.1 19.1-9.4 33.4-10.9 22.2-2.1 45.5 2.6 38.8 22.5zM781.7 1285.9c-14.9 23 6 23.7-7.4 59.3-12.3 32.5-28.6 59.1-24.3 84-34-13-65.9-30.5-94.8-51.6-2-3.3-4.1-6.3-6.1-8.8-5.9-7.2-16.9-13.1-28.3-19.4-14.7-13.4-28.4-27.8-40.9-43.2-4.7-18.4-13.6-34.4-33.6-47.4-3.9-6.4-7.6-12.8-11.1-19.4 14.2 5.2 28.7 7.7 40.8 3.9 38.8-12.3 51.6-17.5 67.2-7.1 15.5 10.4 45.9-43.3 84.5-8.6 38.7 34.6 68.9 35.3 54 58.3zM592.7 927.2s15.9 15.9 25.9 17.4 29 31.1 38.8 17.7c9.8-13.4 12.1-12.5 32.5-26.5s57.6-64.9 44.6-78.3-.6-24.1-38.1-10.5-59.8.3-60.9 25.1c-1 24.7-51.8 28.8-42.8 55.1z"/><path class="st15" d="M1154.3 1360c-26.7 19.7-55.2 39.2-86.8 53.7-39.2 18-82.8 27.5-122.9 34.8-41.8 5.2-84.2 4.2-125.6-3.1 9.4-21.5 16.8-50.3 15.5-86.4-3.2-91.4-37.8-126.1 18.9-123 56.8 3.2 94.6 129.1 217.5 129.2 27.3 0 57.5-1.2 83.4-5.2zM1306.1 1046.7c0 53.9-12.4 102.6-31.3 149.7-39.6-58.4-104.8-113.3-77.7-174.8 19.4-44 56.5-75.2 94.8-82.3 9.3 34.2 14.2 70.2 14.2 107.4zM761.3 1206.7c-31.5 6.8-45.7-25.9-87.5-23.2-22 1.4-22 10.7-46.5 12.3-24.9 1.6-65.2-5.4-73.8-30.1-6.7-19.2 7.8-43 21.9-56.1 31.9-29.7 69.3-11.3 84.8-35.6 13.8-21.5-11.4-42.8 2.7-75.2 9.1-20.9 32.1-40.7 52-36.9 26.7 5.1 35.6 50.5 36.9 57.4 7 35.9-9.9 43.6-2.7 71.1 10.8 41.5 55.1 46.9 53.3 75.2-1.2 18.7-21.5 36.9-41.1 41.1z"/><g><path class="st16" d="M801.7 861.2c24.7-3.6 58.4 18.3 82 42 36.1 36.3 37.4-10 70.1-21.5-8.4 17.7-14.5 43.2-33.5 41.3-30.3-3-54.1-18.4-55.6 1.6-1.4 20-36.3 57.6-67.7 47.3-17.6-5.7-7.5-59.3 4.7-110.7z"/></g><g><path class="st16" d="M1146.7 1284.1c-6.5 3.7-14.9 6.5-25.8 8-56.9 7.9-120.1-84.3-136.2-128.1-16.1-43.8-43.1-15.2-121.9-4-78.8 11.1-81.9-67.1-75-106.7 6.9-39.7 52.1-52.5 77-57.7 25-5.2 0-28.3 30.5-38.9 21.2-7.4 56.8-4.8 84.9-10.5 2.2 12.6-84.9 10.6-59.1 44.2 25.8 33.7-33.3 45.8-74.9 47.1-41.6 1.4-37.4 38.8-19.4 79s135.9-47.1 174.7 31.9c38.9 79.1 145.2 135.7 145.2 135.7z"/></g></g><g id="Layer_11"><path class="st1" d="M1614.2 865.9c1.3-3.4 2-7 2.2-10.6.9-17.7-12.8-32.9-30.5-33.7-11-.6-21 4.5-27.2 12.6.4-2.3.6-4.7.8-7.1 1.8-35.5-25.5-65.7-61-67.5-19.7-1-37.8 7-50.2 20.3-8.9-32.8-38.1-57.7-73.9-59.5-42.1-2.1-78.3 28.4-84 69.4-7.4-5.1-16.3-8.4-26-8.8-27.6-1.4-51.1 19.9-52.5 47.5v.6c-6.9-7.8-16.8-12.9-28-13.5-22.1-1.1-40.8 15.9-42 37.9-1.7 34.3 31.7 42.7 59 44.7 87 6.5 174.2-1.7 261.2-4.9 20.6-.8 41.1-1.4 61.7-2 19.1-.6 38.3-.9 57.3-3.2 7.1-.8 14.2-2.5 20.3-6.3 5.9-3.7 10.3-9.4 12.8-15.9z" id="cloud_1_"/><g id="head_2_"><path d="M1307.8 511.2s6.2 45.9 28.7 58.1c22.5 12.2 49.3 13.4 54.2 33.5 4.9 20.1 9.1 66.3 43.8 57.2s24.3-28 42.6-19.5 48 26.5 53.5 16-28-56.2-28-56.2L1373 494.4l-65.2 16.8z" fill="#68181a"/><path class="st18" d="M1369.6 554.4s1.7 21.1 8.3 30.4c0 0-14.9 5.3-20.5-5.7 0 0-.1-14.1-1.6-21.1-1.6-7 13.8-3.6 13.8-3.6z"/><path class="st3" d="M1307.8 511.2s17.6 32.6 23.5 38.3c7.9 7.7 11.6 11.3 24.4 12 12.8.7 23.5-20 23.5-31.5s-25.4-53.9-45-39.7c-19.7 14.1-26.4 20.9-26.4 20.9z"/><path class="st19" d="M1307.8 511.2s25.7-18.4 39-5.2c13.3 13.3 21.4 16.6 26 32.6 4.5 16 17.1 22.1 29.3 23.2s12.7 27.1 23.8 38.1c11 11 35.4 23.2 61.3 18.2 26-5 20.4 38.7 47.5 38.7s42-29.3 39.8-34.2-16.6 9.9-31.5-2.2c-14.9-12.2-33.1-53-67.9-61.9-34.8-8.8-55.8-20.1-67.9-57.3s-50.3-47.1-71.8-35.5-49.1 55-27.6 45.5z"/><path class="st18" d="M1337.1 530s.5 9.2 0 15.4c0 0 5 1.7 8.5-5.5l-8.5-9.9z"/><ellipse transform="rotate(-34.03 1329.714 533.03)" class="st20" cx="1329.7" cy="533" rx="3.1" ry="6.3"/><ellipse transform="rotate(-34.03 1329.714 533.03)" class="st20" cx="1329.7" cy="533" rx="3.1" ry="6.3"/><ellipse transform="rotate(-34.03 1343.975 522.695)" class="st20" cx="1343.9" cy="522.7" rx="3.1" ry="6.3"/><path class="st18" d="M1346.1 556.1c-.6 0-1.1-.5-1.1-1.1 0-.6.5-1.1 1-1.1 0 0 5.1-.1 8.8-4 3-3.1 4.4-7.7 4.2-13.7 0-.6.4-1.1 1-1.1.7 0 1.1.4 1.1 1 .2 6.6-1.4 11.8-4.8 15.3-4.3 4.5-10 4.7-10.2 4.7zM1334.4 516c-.3 0-.5-.1-.7-.3-.4-.4-.5-1.1-.1-1.5.2-.2 4.9-5.5 10.7-3.6.6.2.9.8.7 1.3-.2.6-.8.9-1.3.7-4.4-1.5-8.4 2.9-8.4 3-.3.3-.6.4-.9.4zM1319.3 524.6h-.1c-.6-.1-1-.6-.9-1.2.4-3.6 7.6-4.4 9-4.6.6-.1 1.1.4 1.2 1 .1.6-.4 1.1-1 1.2-2.9.3-6.9 1.4-7.1 2.7-.1.5-.6.9-1.1.9z"/><path class="st19" d="M1377.6 477.8c14.6 12.9 29 26.2 44.2 38.5 13.6 10.9 27.6 18 44.5 21.9 8.9 2 18 3.9 26.1 8.4 6.7 3.7 12.8 8.5 18.7 13.4 11.1 9.1 22.5 18.6 37 21.3 3.5.6 5-4.7 1.5-5.3-15.3-2.8-26.6-13.5-38.3-22.9-5.1-4.1-10.3-8.1-16.1-11.2-7.4-4-15.4-6.2-23.6-8.1-8.9-2-17.7-4-25.9-8.1-7.8-3.9-14.8-9-21.5-14.5-14.6-12-28.5-24.8-42.7-37.3-2.6-2.3-6.5 1.5-3.9 3.9z"/><path class="st19" d="M1409.4 525c13.7 8.3 28.4 14.2 43.7 19 13 4 26.5 7.2 38.6 13.6 12.9 6.9 23.3 18.1 34.7 27.1 11.6 9.2 24.1 17 38.4 21 3.4 1 4.9-4.4 1.5-5.3-15.5-4.3-28.5-13.4-40.8-23.5-10.5-8.6-20.2-18.6-32.4-24.8-11.2-5.7-23.5-8.9-35.5-12.6-15.9-4.8-31.2-10.8-45.5-19.4-3-1.6-5.8 3.1-2.7 4.9z"/></g><path class="st21" d="M1357.1 570.1s-49.7 10.3-44.8 13.7c4.9 3.4 8.4 35.5 9.1 44.8.7 9.2 19 68.1 19 68.1s74.6 16.1 72.7 0c-1.9-16.1-9.1-97.3-9.3-128l-31.5 1.9s-7.9 12-15.2-.5z"/><path class="st3" d="M1313.2 583.8s-43.2 96.4-55.3 107.9c-12.1 11.4-59.3 47.1-66.4 47.1s-26.3.8-34.2.1c-4.9-.4-13.8 1.9-19.7 3.7-1 .3-.7 1.7.3 1.7 3.7-.1 8.7-.1 13.7.3 10 .7 31.2 4.5 31.2 4.5l-14 11.1c-.9.6-.3 2.1.7 1.9 2.5-.3 6.7-1.4 13.3-4.4 14.2-6.6 11.5-4.7 20.8-9s74.3-51.4 76.4-55.7c2.1-4.3 40.6-77.1 40.6-77.1s-1.3-24.3-7.4-32.1z" id="hand_3_"/><g id="legs_1_"><path class="st21" d="M1355.6 953.6s-9.9 69.1 14.7 68.5c17.3-.4 23.9-.7 8.7-70.6l-23.4 2.1zM1413.1 943.8s-17.9 74.4 15.3 74.4c27.9 0 4.3-74.9 4.3-74.9l-19.6.5z"/><path d="M1340.4 696.7c.3-.4-77.1 99.1-31.4 100.8 55.6 2.1 159.5-7.7 162.8-19.2 3.3-11.5-58.7-81.6-58.7-81.6h-72.7z" fill="#2b0fd2"/><path class="st23" d="M1346.1 954.5s-38.2-174.3-19.7-210.2c18.5-35.9 47.3-28.3 54.6-15.8s8.9 222 8.9 222l-43.8 4z"/><path class="st23" d="M1450 941.6s20.3-210.8-25.5-228.5c-45.9-17.7-37 94.9-34.6 114.2 2.4 19.3 6.4 109.4 12.9 114.2 6.4 5 47.2.1 47.2.1zM1355.6 718.1s-46.5 34.5-57 59.6c-8.8 21.1 2.4 19.6 22.8 19.9 20.4.2 34.2-79.5 34.2-79.5z"/><path class="st19" d="M1363 1004.8h18.8c3.5 0 3.6-5.5 0-5.5H1363c-3.6 0-3.6 5.5 0 5.5zM1363.5 990.8c5.6.3 11.1 0 16.7-.9 3.5-.5 2-5.8-1.5-5.3-5 .8-10.1.9-15.2.7-3.6-.2-3.6 5.3 0 5.5zM1417.9 1004.2c5.9.2 11.9.1 17.8-.2 3.5-.2 3.6-5.7 0-5.5-5.9.3-11.9.3-17.8.2-3.5-.1-3.5 5.4 0 5.5zM1416.1 989.4h17c3.5 0 3.6-5.5 0-5.5h-17c-3.6 0-3.6 5.5 0 5.5z"/></g><path id="hand_2_" class="st3" d="M1533.7 782.9c-11.9-12.8-38.7-16-38.7-16-10-26-51.1-82.6-54.7-94.7-30.5-100.5-36.5-103.4-36.5-103.4V607l20.9 71.1c.6 1.9 1.4 3.7 2.5 5.4 5.1 7.7 20.7 31.3 31.5 45.2 13 16.7 38.1 52.3 38.1 52.3l11.8 6.5s-.4-4.2-4.7-7.7c11.5-.9 22.9 2.6 28.6 4.8 1.1.4 1.9-.9 1.2-1.7z"/></g><g id="Layer_10"><path class="st12" d="M616.1 645.7s-21.4-15.3-6.9-26.7c14.4-11.4 22.4-1.7 29.6.7 7.2 2.4 17.6 14.2 6.6 23.1-11 8.9-21.8 8.2-21.8 8.2l-7.5-5.3z"/><path class="st11" d="M623.5 653.8s5.3-14.2 17.6-14.2 18.6 4.4 18.6 14.2-6.5 14.3-7.2 18.2c-.7 3.9-11.8 9-15.7 6.9-3.8-2.1-18.3-13.6-13.3-25.1zM623.5 650.9s-4.5-17-10.3-21.9c-5.8-4.8-7.3-5-13.3-1.1-6 3.9-5.9 14.2-9 19-3 4.8-3.9 15.9 3.6 17.7 7.5 1.8 20.9.6 24.9-5.2 4.1-5.6 4.1-8.5 4.1-8.5z"/><path class="st12" d="M624.4 654.6c-7.5-3.1-16.4-1.8-22.3 3.8-2 1.9-3.3 4-3.3 6.4 0 8.1 6.3 17.3 15 14.8s11.4-1.2 16.8.4 16.5-4.7 14.1-12.2c-1.4-4.6-12.2-9.8-20.3-13.2z"/><circle class="st24" cx="624.2" cy="649.5" r="6.1"/><path class="st24" d="M1037.9 1749.9c-1.2 0-2.3-.7-2.9-1.8-.4-.9-40-86.1-12.8-161.9 13.9-38.6 42.6-68.3 85.2-88.3 105.6-49.5 68.2-134.3 38.2-202.5-12.6-28.7-23.5-53.4-21.7-71.3 6.8-66.8 33.8-108.4 57.7-145.1 28.3-43.5 50.6-77.9 31.2-138.5-31.1-97.6-80.4-113.6-233.8-117.8-47.6-1.3-95.4 3.8-141.6 8.7-100.2 10.6-186.7 19.8-218.1-45.2-25.1-51.9-19.8-72.5-10.9-80.6 8.7-7.9 24.4-6.6 41 3.4 1.5.9 2 2.9 1.1 4.4-.9 1.5-2.9 2-4.4 1.1-13.9-8.4-27-10-33.4-4.1-4.8 4.4-13.2 20.2 12.4 73.1 29.4 60.9 113.9 51.9 211.7 41.6 46.4-4.9 94.4-10 142.4-8.7 74 2 127.4 6.8 164.7 24.2 36.1 16.9 58.5 46.2 75 98 20.3 63.6-3.9 100.8-32 144-23.4 36.1-50 77-56.7 142.2-1.7 16.2 8.9 40.3 21.2 68.1 29.5 67 69.9 158.7-41.3 210.9-41 19.2-68.6 47.7-81.9 84.7-26.4 73.3 12.1 156.1 12.5 157 .8 1.6.1 3.5-1.5 4.3-.4 0-.9.1-1.3.1z"/><ellipse class="st24" cx="1038.2" cy="1746.7" rx="49.6" ry="4.5"/><path class="st24" d="M604.6 722.6h-.1c-1.2-.1-2.1-1.1-2-2.3.1-2 3.5-50.1 20-72.1.7-.9 2-1.1 3-.4.9.7 1.1 2 .4 3-15.7 21-19.1 69.3-19.2 69.8 0 1.1-.9 2-2.1 2zM894.9 824.7c-1.2 0-2.1-.9-2.1-2.1 0-1.2.9-2.1 2.1-2.1 68.1-.3 125.1-54.5 125.7-55.1.8-.8 2.2-.8 3 .1.8.8.8 2.2-.1 3-.5.5-58.7 55.8-128.6 56.2.1 0 0 0 0 0zM1047.4 1250.5c-.7 0-1.5-.4-1.9-1.1-.6-1-.2-2.3.8-2.9 1.9-1.1 47-26.3 71.4-17.3 6.5 2.4 10.9 6.9 13.3 13.5.4 1.1-.2 2.3-1.3 2.7-1.1.4-2.3-.2-2.7-1.3-2-5.4-5.5-9-10.8-11-22.6-8.4-67.4 16.8-67.8 17-.3.3-.7.4-1 .4zM1180.5 1407.9h-.3c-1.2-.2-2-1.2-1.8-2.4 6.6-49.4 53.3-72.5 53.7-72.8 1.1-.5 2.3-.1 2.8 1s.1 2.3-1 2.8c-.4.2-45.1 22.4-51.4 69.5-.1 1.1-1 1.9-2 1.9z"/><path class="st10" d="M1008.7 760.6s-35-25.1-11.3-43.8c23.6-18.7 36.6-2.7 48.4 1.2 11.8 3.9 28.9 23.2 10.9 37.8-18 14.6-35.7 13.4-35.7 13.4l-12.3-8.6z"/><path class="st25" d="M1020.9 773.9s8.7-23.3 28.8-23.3 30.5 7.3 30.5 23.3-10.6 23.5-11.7 29.9c-1.1 6.4-19.3 14.7-25.7 11.3s-30-22.3-21.9-41.2zM1020.9 769.3s-7.4-27.9-16.8-35.8c-9.4-7.9-12-8.1-21.9-1.7-9.8 6.4-9.7 23.3-14.7 31.1-4.9 7.9-6.4 26.1 5.9 29s34.3.9 40.8-8.5c6.7-9.5 6.7-14.1 6.7-14.1z"/><path class="st10" d="M1022.3 775.2c-12.4-5.1-26.8-3-36.5 6.3-3.2 3.1-5.5 6.6-5.5 10.5 0 13.3 10.3 28.3 24.6 24.3 14.3-4.1 18.7-1.9 27.6.7 8.9 2.6 27.1-7.7 23.1-20-2.3-7.7-19.9-16.3-33.3-21.8z"/><circle class="st12" cx="1022.1" cy="766.9" r="9.9"/><path class="st12" d="M1037.6 1243.8s-25.5-18.3-8.3-31.9c17.2-13.6 26.7-2 35.3.9 8.6 2.9 21.1 16.9 7.9 27.6s-26 9.8-26 9.8l-8.9-6.4z"/><path class="st11" d="M1046.5 1253.5s6.3-17 21-17 22.2 5.3 22.2 17-7.8 17.1-8.5 21.8c-.8 4.7-14 10.7-18.7 8.2-4.7-2.6-22-16.3-16-30zM1046.5 1250.1s-5.4-20.3-12.3-26.1c-6.9-5.8-8.8-5.9-15.9-1.3s-7.1 17-10.7 22.7-4.7 19 4.3 21.2c9 2.1 25 .7 29.8-6.2s4.8-10.3 4.8-10.3z"/><path class="st12" d="M1047.5 1254.4c-9-3.7-19.6-2.2-26.6 4.6-2.3 2.2-4 4.8-4 7.6 0 9.7 7.5 20.7 17.9 17.7 10.4-3 13.6-1.4 20.1.5s19.7-5.6 16.9-14.6c-1.7-5.5-14.5-11.7-24.3-15.8z"/><circle class="st26" cx="1047.4" cy="1248.4" r="7.2"/><path class="st12" d="M1224.8 1330.8s-21.4-15.3-6.9-26.7c14.4-11.4 22.4-1.7 29.6.7 7.2 2.4 17.6 14.2 6.6 23.1-11 8.9-21.8 8.2-21.8 8.2l-7.5-5.3z"/><path class="st11" d="M1232.3 1338.9s5.3-14.2 17.6-14.2 18.6 4.4 18.6 14.2c0 9.8-6.5 14.3-7.2 18.2-.7 3.9-11.8 9-15.7 6.9-3.8-2-18.3-13.5-13.3-25.1zM1232.3 1336.1s-4.5-17-10.3-21.9c-5.8-4.8-7.3-5-13.3-1.1-6 3.9-5.9 14.2-9 19-3 4.8-3.9 15.9 3.6 17.7s20.9.6 24.9-5.2 4.1-8.5 4.1-8.5z"/><path class="st12" d="M1233.1 1339.7c-7.5-3.1-16.4-1.8-22.3 3.8-2 1.9-3.3 4-3.3 6.4 0 8.1 6.3 17.3 15 14.8s11.4-1.2 16.8.4 16.5-4.7 14.1-12.2c-1.4-4.5-12.1-9.8-20.3-13.2z"/><circle class="st26" cx="1233" cy="1334.7" r="6.1"/><path class="st12" d="M903.2 1486.8s-29.7-21.3-9.6-37.2 31.1-2.3 41.1 1 24.5 19.7 9.2 32.1c-15.3 12.4-30.3 11.4-30.3 11.4l-10.4-7.3z"/><path class="st11" d="M913.6 1498.1s7.4-19.8 24.5-19.8 25.9 6.2 25.9 19.8-9 19.9-10 25.4c-.9 5.4-16.4 12.5-21.8 9.6s-25.6-19-18.6-35zM913.6 1494.1s-6.3-23.7-14.3-30.4c-8-6.7-10.2-6.9-18.6-1.5-8.4 5.4-8.3 19.8-12.4 26.4-4.2 6.7-5.4 22.2 5 24.7s29.1.8 34.7-7.3c5.6-7.9 5.6-11.9 5.6-11.9z"/><path class="st12" d="M914.8 1499.1c-10.5-4.4-22.8-2.6-31 5.3-2.7 2.6-4.6 5.6-4.6 8.9 0 11.3 8.8 24.1 20.9 20.6 12.1-3.5 15.9-1.6 23.4.6 7.5 2.2 23-6.6 19.6-17-2.1-6.3-17-13.6-28.3-18.4z"/><circle class="st24" cx="914.6" cy="1492.1" r="8.4"/><path class="st24" d="M825.7 1468.6c-14.3 0-27.4-14.1-38.8-42-19.9-48.6-4.7-74.6 12.8-104.8 19.1-32.7 42.8-73.5 30-159.2-24.9-166.8-133.3-263.1-200-287.1-72.3-26-121.2-6.2-164.4 11.3-38.1 15.4-74.1 30-119 11.1-35.9-15.1-66.9-11.2-89.7 11.3-32.6 32.3-42.8 98.7-22.6 147.9 13 31.7 36.3 49.1 65.6 49.2 1.8 0 3.2 1.4 3.2 3.2 0 1.8-1.4 3.2-3.2 3.2-32.1-.1-57.5-18.9-71.5-53.2-21.1-51.4-10.3-120.9 24-154.8 17.3-17.1 48-33.2 96.7-12.7 42.6 17.9 75.7 4.5 114.2-11.1 44.2-17.9 94.4-38.2 168.9-11.4C700 894 810.7 992.1 836 1161.7c13.1 87.9-11.2 129.7-30.8 163.3-17.4 29.9-31.1 53.5-12.4 99.1 10.3 25.2 21.4 38 32.9 38h.3c20-.3 39.1-40.1 44.8-55.4.6-1.7 2.5-2.5 4.1-1.9 1.7.6 2.5 2.5 1.9 4.1-.9 2.4-22.2 59.1-50.7 59.6-.2.1-.3.1-.4.1z"/><path class="st24" d="M219.3 1147.9c-.7 0-1.4-.4-1.8-1.1-29.1-49.7 1.2-121.1 2.5-124.2.5-1.1 1.7-1.6 2.8-1.1 1.1.5 1.6 1.7 1.1 2.8-.3.7-30.8 72.5-2.7 120.3.6 1 .3 2.3-.8 2.9-.3.3-.7.4-1.1.4z"/><path class="st12" d="M207.1 1143.7s-35.1-25.2-11.4-43.9 36.7-2.8 48.6 1.2 29 23.3 10.9 38c-18.1 14.6-35.9 13.5-35.9 13.5l-12.2-8.8z"/><path class="st11" d="M219.3 1157.1s8.7-23.4 28.9-23.4 30.6 7.3 30.6 23.4c0 16.1-10.7 23.5-11.8 30s-19.3 14.8-25.8 11.3-30.1-22.4-21.9-41.3zM219.3 1152.4s-7.4-28-16.9-35.9c-9.5-7.9-12.1-8.2-21.9-1.8-9.9 6.4-9.8 23.4-14.7 31.3-4.9 7.9-6.4 26.2 5.9 29.1 12.3 3 34.4.9 41-8.6 6.6-9.4 6.6-14.1 6.6-14.1z"/><path class="st12" d="M220.7 1158.4c-12.4-5.2-26.9-3-36.6 6.3-3.2 3.1-5.5 6.6-5.5 10.5 0 13.3 10.4 28.4 24.7 24.3 14.3-4.1 18.8-1.9 27.7.7s27.2-7.7 23.2-20.1c-2.4-7.5-20-16.2-33.5-21.7z"/><circle class="st26" cx="220.5" cy="1150" r="10"/><path class="st24" d="M883.2 1497c-31.7 0-77.1-8.4-87.5-54.4-.3-1.1.5-2.3 1.6-2.5 1.1-.3 2.3.5 2.5 1.6 15.4 68.1 113.4 48.6 114.3 48.4 1.1-.2 2.3.5 2.5 1.7.2 1.2-.5 2.3-1.7 2.5-.2 0-13.8 2.7-31.7 2.7zM793.8 1038.1c-.6 0-1.2-.3-1.6-.7-.3-.4-31.9-36-93.8-23.6-1.2.2-2.3-.5-2.5-1.7-.2-1.2.5-2.3 1.7-2.5 64.4-12.9 97.5 24.6 97.9 24.9.8.9.7 2.2-.2 3-.5.4-1 .6-1.5.6z"/><path class="st25" d="M688.2 1007.1s-25.6-18.3-8.3-32 26.8-2 35.4.9c8.6 2.9 21.1 17 7.9 27.7-13.2 10.7-26.1 9.8-26.1 9.8l-8.9-6.4z"/><path class="st10" d="M697.1 1016.9s6.3-17.1 21.1-17.1 22.3 5.3 22.3 17.1c0 11.7-7.8 17.2-8.6 21.8s-14.1 10.8-18.8 8.3-22-16.3-16-30.1zM697.1 1013.5s-5.4-20.4-12.3-26.2c-6.9-5.8-8.8-6-16-1.3s-7.1 17-10.7 22.8c-3.6 5.8-4.7 19.1 4.3 21.2s25.1.7 29.9-6.2c4.8-6.9 4.8-10.3 4.8-10.3z"/><path class="st25" d="M698.1 1017.8c-9-3.8-19.6-2.2-26.7 4.6-2.3 2.2-4 4.8-4 7.7 0 9.7 7.6 20.7 18 17.7s13.7-1.4 20.2.5 19.8-5.6 16.9-14.6c-1.7-5.6-14.6-11.8-24.4-15.9z"/><circle class="st12" cx="698" cy="1011.7" r="7.3"/><path class="st24" d="M278.9 890.6s7.8 18.6-4.3 32.8c0 0-27.2-18.8 4.3-32.8zM228 952.3s-12.6 5.1-17 22.1c0 0-14.1-17.2-1.7-27.9 12.3-10.7 25.2-9.3 18.7 5.8z"/><g><path class="st24" d="M386.7 903.6s-8.3-22.7-22.9-26.8c.1.1-13.7 25.7 22.9 26.8z"/></g><g><path class="st24" d="M497.1 871.3S485.3 851 461.7 851c0 0-7.9 37.5 35.4 20.3z"/></g><g><path class="st24" d="M594.6 863.4s-15.1 26.7-37.5 27.2c0 0 1.4-36.3 37.5-27.2z"/></g><g><path class="st24" d="M718.2 927.7s11.7-19.2 0-37.1c0 0-23.2 23.7 0 37.1z"/></g><g><path class="st24" d="M771.5 996.5s15.9-6.4 14-27.9c0 0-28.3 3.8-14 27.9z"/></g><g><path class="st24" d="M830.9 1150s-2-15.4-28.3-16.4c0 0 13.2 47.2 31.3 35.9l-3-19.5z"/></g><g><path class="st24" d="M828.1 1268.7s36.5 6 37.1-16.3c0 0-25.7-12.3-37.1 16.3z"/></g><g><path class="st24" d="M802.6 1326.1s15.1-38.8 0-52.6c0 0-23.7 75 0 52.6z"/></g><g><path class="st24" d="M788.1 1420.9s34.7 10.5 40.1-4.8c-.1.1-51-20.8-40.1 4.8z"/></g><g><path class="st24" d="M828.1 1483.7s-.3 22.3 18.5 32.2c0 0 9.6-14-5.7-27.1l-12.8-5.1z"/></g><g><path class="st24" d="M272.9 1104.3s36.1-3.7 42.5-16.2c0 0 12.6 25.9-15.3 23.9s-27.2-7.7-27.2-7.7z"/></g><g><path class="st24" d="M214.5 1045.3s-19.4 8-21.9 24.6c0 0 0 5.7 1.6 8.9s15.3-12.4 16.9-19.5c1.6-7.1 3.4-14 3.4-14z"/></g><g><path class="st24" d="M604.6 733.2s-29.9-7.8-28.8-26.7c.1 0 27.1-4.6 28.8 26.7z"/></g><g><path class="st24" d="M629.4 797s-12.2-20.6 3.1-41.9c0 .1 16.7 57.3-3.1 41.9z"/></g><g><path class="st24" d="M710.6 834.7s-22.2 29.2-44.3 18.2c0 0 13.4-26.3 44.3-18.2z"/></g><g><path class="st24" d="M794.3 832.5s-8.4-22.7-24.9-26.7c-.1.1-7.4 32.5 24.9 26.7z"/></g><g><path class="st24" d="M886.4 823.3s-5.2 26.4-26.9 29.2c0 0 1.6-26.9 14.2-28.1l12.7-1.1z"/></g><g><path class="st24" d="M942.6 814.3s4.2-12.9 5-21.1c.8-8.2-5-14.7-5-14.7s29.4 20.8 12.6 31.1c-16.8 10.2-12.6 4.7-12.6 4.7z"/></g><g><path class="st24" d="M1057.9 823.9s8.8 25.4 29.3 24.2c0 0 3.8-21.7-29.3-24.2z"/></g><g><path class="st24" d="M1143.4 843.9s29.5 12.3 34.7 4.2c0 0-34.4-26.1-34.7-4.2z"/></g><g><path class="st24" d="M1203.2 906.8s-19 9.8-11.8 28.1c0 0 26.7-2.5 11.8-28.1z"/></g><g><path class="st24" d="M1218.8 1014.4s17.1 15.2 14.2 37.4c0-.1-26.6-7.2-14.2-37.4z"/></g><g><path class="st24" d="M1176.5 1092.7s-35.4-.4-40.6 22.5c0 0 24.8 3 31.5-7.8 6.7-10.8 9.1-14.7 9.1-14.7z"/></g><g><path class="st24" d="M1144.8 1152.1s26.5 31.5 7.2 51.3c0 0-22.5-26.5-7.2-51.3z"/></g><g><path class="st24" d="M1153.7 1306s-30.7-.4-38.3-20.9c0 0 26.2-8.8 38.3 20.9z"/></g><g><path class="st24" d="M1186 1384.9s17 5.6 32.7-2.4c.1 0-27.1-18.5-32.7 2.4z"/></g><g><path class="st24" d="M1148.6 1475.2s12.5-22.3 5.2-35.2c-.1 0-41 66-5.2 35.2z"/></g><g><path class="st24" d="M1088 1512s23.4 18.1 42.3 8.5c0 0-16.2-28.3-42.3-8.5z"/></g><g><path class="st24" d="M1022.4 1596.2s6.4-38.9-13.9-47.2c-.1 0 7.1 91.3 13.9 47.2z"/></g><g><path class="st24" d="M1017.3 1671.1s38.4-13.3 45-33.6c0 0-57.5-.9-45 33.6z"/></g></g></g></switch></svg>