<svg xmlns="http://www.w3.org/2000/svg" enable-background="new 0 0 24 24" viewBox="0 0 24 24"><path d="M21.583,24H2.417C1.084,24,0,22.916,0,21.583V2.417C0,1.084,1.084,0,2.417,0h19.166C22.916,0,24,1.084,24,2.417v19.167C24,22.916,22.916,24,21.583,24z M2.417,1C1.636,1,1,1.635,1,2.417v19.167C1,22.365,1.636,23,2.417,23h19.166C22.364,23,23,22.365,23,21.583V2.417C23,1.635,22.364,1,21.583,1H2.417z"/><path d="M12.95,19.714H6.518c-0.276,0-0.5-0.224-0.5-0.5v-14c0-0.276,0.224-0.5,0.5-0.5h6.803c1.37,0,2.488,0.324,3.323,0.963c0.886,0.675,1.335,1.687,1.335,3.007c0,0.807-0.204,1.512-0.607,2.094c-0.205,0.297-0.456,0.56-0.75,0.787c0.5,0.255,0.908,0.61,1.22,1.062c0.496,0.717,0.747,1.615,0.747,2.671c0,0.543-0.095,1.072-0.281,1.575c0,0.059-0.01,0.117-0.032,0.17c-0.23,0.56-0.601,1.056-1.071,1.435c-0.482,0.39-1.079,0.696-1.773,0.909C14.73,19.604,13.896,19.714,12.95,19.714z M7.018,18.714h5.933c0.845,0,1.58-0.095,2.186-0.282c0.572-0.175,1.056-0.421,1.439-0.731c0.301-0.243,0.546-0.551,0.714-0.898c0.002-0.056,0.015-0.112,0.036-0.166c0.175-0.424,0.263-0.874,0.263-1.338c0-0.849-0.191-1.556-0.569-2.103c-0.356-0.516-0.908-0.855-1.642-1.01c-0.231-0.049-0.396-0.253-0.396-0.489c0-0.201,0.12-0.428,0.306-0.506c0.549-0.232,0.974-0.562,1.263-0.979c0.285-0.413,0.43-0.926,0.43-1.526c0-1.005-0.309-1.729-0.942-2.212c-0.656-0.503-1.57-0.758-2.716-0.758H7.018V18.714z"/><path d="M13.319 17.715H8.985c-.276 0-.5-.224-.5-.5v-4.368c0-.276.224-.5.5-.5h4.321c.834 0 1.507.212 2.001.63.026.016.051.034.074.055.514.459.778 1.118.787 1.958 0 .851-.262 1.525-.778 2.009C14.89 17.474 14.192 17.715 13.319 17.715zM9.485 16.715h3.834c.608 0 1.075-.149 1.386-.443.312-.293.464-.71.464-1.276-.005-.521-.139-.907-.406-1.173-.022-.014-.044-.03-.062-.048-.314-.287-.771-.427-1.394-.427H9.485V16.715zM12.969 11.578h-4c-.276 0-.5-.224-.5-.5V7.215c0-.276.224-.5.5-.5h4c.776 0 1.396.183 1.843.544.475.383.716 1.016.716 1.879 0 .779-.258 1.393-.767 1.825-.016.014-.032.026-.049.037C14.244 11.378 13.643 11.578 12.969 11.578zM9.469 10.578h3.5c.462 0 .846-.127 1.14-.377.013-.011.025-.021.038-.029.256-.236.381-.574.381-1.034 0-.546-.116-.917-.345-1.101-.264-.214-.673-.322-1.214-.322h-3.5V10.578z"/></svg>