<?xml version="1.0"?>
<svg xmlns="http://www.w3.org/2000/svg" xmlns:xlink="http://www.w3.org/1999/xlink" xmlns:svgjs="http://svgjs.com/svgjs" version="1.1" width="512" height="512" x="0" y="0" viewBox="0 0 512 512" style="enable-background:new 0 0 512 512" xml:space="preserve" class=""><g><path xmlns="http://www.w3.org/2000/svg" d="M189.94,215A59.961,59.961,0,0,1,168.43,99.05c-.06-1.32-.1-2.65-.1-3.99a84.03,84.03,0,0,1,69.046-82.7,83.992,83.992,0,0,0-99.046,82.7c0,1.34.04,2.67.1,3.99A59.961,59.961,0,0,0,159.94,215Z" style="" fill="#d4e1f4" data-original="#d4e1f4" class=""/><path xmlns="http://www.w3.org/2000/svg" d="M96.645,507h318.71A37.662,37.662,0,0,0,453,469.528V449.4a6.5,6.5,0,0,0-6.173-6.4H438V282.742A37.913,37.913,0,0,0,400.334,245H111.666A37.913,37.913,0,0,0,74,282.742V443H65.173A6.5,6.5,0,0,0,59,449.4v20.13A37.662,37.662,0,0,0,96.645,507ZM86,282.742A25.9,25.9,0,0,1,111.666,257H400.334A25.9,25.9,0,0,1,426,282.742V443H412V279.529c0-3.313-2.6-5.529-5.912-5.529H105.912c-3.313,0-5.912,2.216-5.912,5.529V443H86ZM400,443H319.232a5.991,5.991,0,0,0-3.7,1.263L295.418,460H216.582l-20.116-15.737a5.991,5.991,0,0,0-3.7-1.263H112V286H400ZM71,455H190.7l20.116,15.737a5.992,5.992,0,0,0,3.7,1.263h82.974a5.992,5.992,0,0,0,3.7-1.263L321.3,455H441v14.528A25.65,25.65,0,0,1,415.355,495H96.645A25.65,25.65,0,0,1,71,469.528Z" style="" fill="#ffd488" data-original="#1ae5be" class=""/><path xmlns="http://www.w3.org/2000/svg" d="M128,312.833a6,6,0,0,0,6-6v-4.3a6,6,0,0,0-12,0v4.3A6,6,0,0,0,128,312.833Z" style="" fill="#ffd488" data-original="#1ae5be" class=""/><path xmlns="http://www.w3.org/2000/svg" d="M128,398.833a6,6,0,0,0,6-6v-65a6,6,0,0,0-12,0v65A6,6,0,0,0,128,398.833Z" style="" fill="#ffd488" data-original="#1ae5be" class=""/><path xmlns="http://www.w3.org/2000/svg" d="M369.632,91.453a66.021,66.021,0,0,0-80.739-57.081A89.784,89.784,0,0,0,222.363,5h-.035C172.685,5.02,132,45.423,132,95.063v.057A66,66,0,0,0,159.937,221H186v20.15a19.213,19.213,0,0,1-13.693,18.382A31.28,31.28,0,0,0,150,289.427v31.311a19.974,19.974,0,0,0-13.959,18.877A19.83,19.83,0,1,0,162,320.738V289.427a19.213,19.213,0,0,1,13.693-18.382A31.28,31.28,0,0,0,198,241.15V221h34.178l.138,42.763a16.161,16.161,0,0,1-8.51,14.135A28.151,28.151,0,0,0,209,302.591v66.782a19.906,19.906,0,1,0,12,.178v-66.96a16.1,16.1,0,0,1,8.509-14.1,28.169,28.169,0,0,0,14.755-24.752L244.178,221H271v13.186a26.422,26.422,0,0,0,16.192,24.662A14.455,14.455,0,0,1,296,272.433v38.243a19.825,19.825,0,1,0,25.924,18.877A19.941,19.941,0,0,0,308,310.676V272.433a26.422,26.422,0,0,0-16.192-24.662A14.456,14.456,0,0,1,283,234.186V221h43v38.691a21.442,21.442,0,0,0,16.726,21.022,9.378,9.378,0,0,1,7.274,9.3v57.86a19.825,19.825,0,1,0,25.922,18.877A19.94,19.94,0,0,0,362,347.87V290.01a21.444,21.444,0,0,0-16.726-21.023,9.377,9.377,0,0,1-7.274-9.3V221h14.035a66.187,66.187,0,0,0,64.7-52.8,65.968,65.968,0,0,0-47.1-76.745ZM155.7,347.427a7.812,7.812,0,1,1,7.812-7.812A7.82,7.82,0,0,1,155.7,347.427Zm59.238,48.716a7.812,7.812,0,1,1,7.812-7.812A7.821,7.821,0,0,1,214.942,396.143ZM302.3,337.364a7.812,7.812,0,1,1,7.811-7.811A7.82,7.82,0,0,1,302.3,337.364Zm54,37.2a7.812,7.812,0,1,1,7.811-7.812A7.821,7.821,0,0,1,356.3,374.559Zm48.676-208.754A54.149,54.149,0,0,1,352.032,209H159.946a53.985,53.985,0,0,1-19.364-104.388,5.975,5.975,0,0,0,3.84-5.855c-.062-1.326-.091-2.531-.091-3.706a78.111,78.111,0,0,1,78-78.051h.031a77.838,77.838,0,0,1,59.864,27.98,6,6,0,0,0,6.32,1.9A54.016,54.016,0,0,1,357.982,96.5a6,6,0,0,0,4.8,5.642,53.969,53.969,0,0,1,42.191,63.659Z" style="" fill="#0635c9" data-original="#0635c9" class=""/><path xmlns="http://www.w3.org/2000/svg" d="M256,84.3a42.664,42.664,0,1,0,42.664,42.664A42.713,42.713,0,0,0,256,84.3Zm0,73.328a30.664,30.664,0,1,1,30.664-30.664A30.7,30.7,0,0,1,256,157.626Z" style="" fill="#0635c9" data-original="#0635c9" class=""/><path xmlns="http://www.w3.org/2000/svg" d="M319.5,132.389a65.444,65.444,0,0,0-.354-13.722l5.5-5.281a6,6,0,0,0,1.344-6.735L318.229,88.9a6,6,0,0,0-5.937-3.579l-7.59.558a59.015,59.015,0,0,0-9.965-9.494l.223-7.564a6,6,0,0,0-3.837-5.775l-18.065-6.972a6,6,0,0,0-6.7,1.678l-4.925,5.709a65.412,65.412,0,0,0-13.725.356l-5.279-5.506a6,6,0,0,0-6.737-1.344L217.94,64.735a6,6,0,0,0-3.578,5.937l.558,7.589a59.1,59.1,0,0,0-9.494,9.966L197.861,88a5.977,5.977,0,0,0-5.774,3.837l-6.972,18.065a6,6,0,0,0,1.678,6.7l5.709,4.927a65.451,65.451,0,0,0,.355,13.722l-5.5,5.28a6,6,0,0,0-1.344,6.736l7.765,17.748a6.007,6.007,0,0,0,5.937,3.579l7.59-.558a59.091,59.091,0,0,0,9.966,9.493l-.223,7.565a6,6,0,0,0,3.837,5.774l18.065,6.973a6,6,0,0,0,6.7-1.679l4.926-5.709a65.311,65.311,0,0,0,13.722-.355l5.28,5.505a6,6,0,0,0,6.736,1.345l17.748-7.765a6,6,0,0,0,3.578-5.937l-.558-7.589a59.133,59.133,0,0,0,9.494-9.966l7.565.222a5.987,5.987,0,0,0,5.774-3.837l6.972-18.065a6,6,0,0,0-1.678-6.7ZM310.247,153.8l-6.531-.193a6.026,6.026,0,0,0-5.169,2.67A47.236,47.236,0,0,1,287.3,168.093a6,6,0,0,0-2.416,5.264l.48,6.541-10.021,4.384-4.548-4.742a6,6,0,0,0-5.409-1.749,53.445,53.445,0,0,1-16.529.427,6,6,0,0,0-5.317,2.031l-4.212,4.882-10.161-3.922.192-6.531a6,6,0,0,0-2.668-5.169,47.257,47.257,0,0,1-11.816-11.252,6.024,6.024,0,0,0-5.264-2.416l-6.541.481L198.681,146.3l4.742-4.548a6,6,0,0,0,1.749-5.41,53.413,53.413,0,0,1-.428-16.529,6,6,0,0,0-2.03-5.315l-4.882-4.213,3.921-10.161,6.531.192a6,6,0,0,0,5.169-2.67,47.248,47.248,0,0,1,11.252-11.814,6,6,0,0,0,2.416-5.265l-.48-6.54,10.021-4.384,4.547,4.742a6,6,0,0,0,5.411,1.749,53.392,53.392,0,0,1,16.531-.427,6.027,6.027,0,0,0,5.317-2.031l4.212-4.883,10.161,3.922-.193,6.531a6,6,0,0,0,2.669,5.169,47.254,47.254,0,0,1,11.815,11.252,6,6,0,0,0,5.264,2.417l6.542-.481,4.383,10.021-4.742,4.548a6,6,0,0,0-1.749,5.41,53.441,53.441,0,0,1,.427,16.529,6,6,0,0,0,2.03,5.315l4.881,4.214Z" style="" fill="#0635c9" data-original="#0635c9" class=""/></g></svg>
