<svg xmlns="http://www.w3.org/2000/svg" width="64" height="64" enable-background="new" viewBox="0 0 64 64"><path style="line-height:normal;font-variant-ligatures:normal;font-variant-position:normal;font-variant-caps:normal;font-variant-numeric:normal;font-variant-alternates:normal;font-variant-east-asian:normal;font-feature-settings:normal;font-variation-settings:normal;text-indent:0;text-align:start;text-decoration-line:none;text-decoration-style:solid;text-decoration-color:#000;text-transform:none;text-orientation:mixed;shape-padding:0;shape-margin:0;inline-size:0;isolation:auto;mix-blend-mode:normal" d="M 9 10 C 6.2504209 10 4 12.250421 4 15 L 4 22.126953 C 5.274704 20.819676 7.0475319 20 9 20 L 55 20 C 56.952468 20 58.725296 20.819676 60 22.126953 L 60 21 C 60 18.250421 57.749579 16 55 16 L 33 16 C 31.984254 16 31.01121 15.597147 30.292969 14.878906 L 27.121094 11.707031 C 26.028323 10.614261 24.545411 10 23 10 L 9 10 z M 9 22 C 6.2504209 22 4 24.250421 4 27 L 4 49 C 4 51.749579 6.2504209 54 9 54 L 55 54 C 57.749579 54 60 51.749579 60 49 L 60 27 C 60 24.250421 57.749579 22 55 22 L 9 22 z M 20.041016 31 C 20.823616 31.01011 21.573333 31.325676 22.126953 31.878906 C 23.291353 33.042206 23.291353 34.959747 22.126953 36.123047 L 20.244141 38.003906 L 22.126953 39.882812 C 23.291353 41.046112 23.291353 42.963653 22.126953 44.126953 C 20.962253 45.290053 19.045559 45.290053 17.880859 44.126953 L 13.873047 40.125 C 12.708847 38.9617 12.708847 37.044259 13.873047 35.880859 L 17.878906 31.878906 C 18.451206 31.307046 19.232066 30.98993 20.041016 31 z M 36.029297 31 C 36.825897 31.0101 37.573603 31.325606 38.126953 31.878906 C 39.290753 33.042306 39.290753 34.959547 38.126953 36.123047 L 30.117188 44.126953 C 28.953088 45.290153 27.037147 45.290153 25.873047 44.126953 C 24.709247 42.963553 24.709247 41.046312 25.873047 39.882812 L 33.880859 31.878906 C 34.452859 31.306986 35.232697 30.98991 36.029297 31 z M 43.958984 31 C 44.767984 30.98993 45.546881 31.307056 46.119141 31.878906 L 50.126953 35.880859 C 51.291153 37.044159 51.291153 38.9616 50.126953 40.125 L 46.119141 44.126953 C 44.954441 45.290053 43.037747 45.290053 41.873047 44.126953 C 40.708647 42.963653 40.708647 41.046112 41.873047 39.882812 L 43.753906 38.003906 L 41.873047 36.123047 C 40.708647 34.959747 40.708647 33.042206 41.873047 31.878906 C 42.426647 31.325676 43.176384 31.01011 43.958984 31 z " color="#000" font-family="sans-serif" font-weight="400" overflow="visible" white-space="normal"/></svg>