<svg xmlns="http://www.w3.org/2000/svg" viewBox="0 0 64 64"><g data-name="Layer 1"><rect width="56" height="36" x="4" y="8" fill="#fce4a9"/><polygon style="mix-blend-mode:multiply" points="57 8 57 43 4 43 4 44 60 44 60 8 57 8" opacity=".1"/><path fill="#41d7f9" d="M25,52H39a3,3,0,0,1,3,3v1a0,0,0,0,1,0,0H22a0,0,0,0,1,0,0V55A3,3,0,0,1,25,52Z"/><path style="mix-blend-mode:multiply" d="M39,52H36a3,3,0,0,1,3,3v1h3V55A3,3,0,0,0,39,52Z" opacity=".1"/><rect width="8.643" height="4" x="27.677" y="48" fill="#f39200"/><rect style="mix-blend-mode:multiply" width="3" height="4" x="33.32" y="48" opacity=".1"/><rect width="56" height="4" x="4" y="44" fill="#41d7f9"/><polygon style="mix-blend-mode:multiply" points="57 44 57 47 4 47 4 48 60 48 60 44 57 44" opacity=".1"/><polygon fill="#f9b233" points="31.999 13.275 20.999 20.008 31.999 26.275 42.999 20.008 31.999 13.275"/><polygon style="mix-blend-mode:multiply" points="42.999 20.008 31.999 13.275 31.316 13.693 39.999 19.008 29.621 24.921 31.999 26.275 42.999 20.008" opacity=".1"/><polygon fill="#f39200" points="31.999 39.275 31.999 26.275 42.999 20.008 42.999 32.543 31.999 39.275"/><polygon style="mix-blend-mode:multiply" points="39.999 21.717 39.999 31.543 31.999 36.439 31.999 39.275 42.999 32.543 42.999 20.008 39.999 21.717" opacity=".1"/><polygon fill="#e94e1b" points="20.999 32.543 31.999 39.275 31.999 26.275 20.999 20.008 20.999 32.543"/><polygon style="mix-blend-mode:multiply" points="31.999 26.275 20.999 20.008 20.999 20.717 28.999 25.275 28.999 37.439 31.999 39.275 31.999 26.275" opacity=".1"/><path fill="#fff" d="M31.72,42.5a.493.493,0,0,1,.49-.5h0a.508.508,0,0,1,.51.49h0a.51.51,0,0,1-.5.51h0A.5.5,0,0,1,31.72,42.5Zm-1.55.4a.5.5,0,0,1-.45-.55h0a.5.5,0,0,1,.55-.44h0a.5.5,0,0,1,.45.55h0a.507.507,0,0,1-.5.45h0A.09.09,0,0,1,30.17,42.9Zm3.54-.48a.5.5,0,0,1,.43-.56h0a.5.5,0,0,1,.57.43h0a.51.51,0,0,1-.43.56h-.07A.505.505,0,0,1,33.71,42.42Zm-5.57.14a.5.5,0,0,1-.38-.6h0a.5.5,0,0,1,.61-.37h0a.5.5,0,0,1,.37.6h0a.5.5,0,0,1-.49.38h0A.41.41,0,0,1,28.14,42.56Zm7.55-.47a.5.5,0,0,1,.36-.61h0a.507.507,0,0,1,.61.36h0a.514.514,0,0,1-.36.61h0a.688.688,0,0,1-.13.02h0A.5.5,0,0,1,35.69,42.09Zm-9.53-.12a.5.5,0,0,1-.29-.64h0a.5.5,0,0,1,.64-.3h0a.5.5,0,0,1,.3.64h0a.5.5,0,0,1-.47.33h0A.566.566,0,0,1,26.16,41.97Zm11.45-.44a.49.49,0,0,1,.28-.65h0a.51.51,0,0,1,.65.28h0a.506.506,0,0,1-.28.65h0a.646.646,0,0,1-.19.04h0A.484.484,0,0,1,37.61,41.53Zm-13.33-.38a.493.493,0,0,1-.22-.67h0a.491.491,0,0,1,.67-.22h0a.5.5,0,0,1,.22.67h0a.5.5,0,0,1-.45.27h0A.442.442,0,0,1,24.28,41.15Zm15.16-.41a.506.506,0,0,1,.2-.68h0a.506.506,0,0,1,.68.2h0a.506.506,0,0,1-.2.68h0a.533.533,0,0,1-.24.06h0A.509.509,0,0,1,39.44,40.74ZM22.5,40.1a.487.487,0,0,1-.13-.69h0a.5.5,0,0,1,.69-.14h0a.512.512,0,0,1,.14.7h0a.522.522,0,0,1-.42.22h0A.514.514,0,0,1,22.5,40.1Zm18.67-.37a.5.5,0,0,1,.12-.7h0a.488.488,0,0,1,.69.12h0a.507.507,0,0,1-.11.7h0a.521.521,0,0,1-.29.09h0A.494.494,0,0,1,41.17,39.73Zm-20.3-.88h0a.494.494,0,0,1-.05-.7h0a.505.505,0,0,1,.71-.05h0a.5.5,0,0,1,.05.7h0a.517.517,0,0,1-.38.17h0A.5.5,0,0,1,20.87,38.85Zm21.89-.33a.5.5,0,0,1,.03-.71h0a.514.514,0,0,1,.71.03h0a.514.514,0,0,1-.03.71h0a.5.5,0,0,1-.34.13h0A.485.485,0,0,1,42.76,38.52ZM19.4,37.41h0a.492.492,0,0,1,.03-.7h0a.5.5,0,0,1,.71.03h0a.5.5,0,0,1-.03.71h0a.555.555,0,0,1-.34.13h0A.5.5,0,0,1,19.4,37.41Zm24.8-.28a.5.5,0,0,1-.06-.71h0a.505.505,0,0,1,.71-.05h0a.493.493,0,0,1,.05.7h0a.493.493,0,0,1-.38.18h0A.472.472,0,0,1,44.2,37.13ZM18.11,35.81a.5.5,0,0,1,.12-.7h0a.5.5,0,0,1,.7.12h0a.509.509,0,0,1-.12.7h0a.521.521,0,0,1-.29.09h0A.521.521,0,0,1,18.11,35.81Zm27.34-.24a.5.5,0,0,1-.14-.69h0a.512.512,0,0,1,.7-.14h0a.5.5,0,0,1,.14.69h0a.506.506,0,0,1-.42.23h0A.49.49,0,0,1,45.45,35.57ZM17.03,34.05v.01a.5.5,0,0,1,.2-.68h0a.506.506,0,0,1,.68.2h0a.5.5,0,0,1-.21.68h0a.465.465,0,0,1-.23.06h0A.5.5,0,0,1,17.03,34.05Zm29.48-.17a.5.5,0,0,1-.22-.67h0a.5.5,0,0,1,.67-.23h0a.5.5,0,0,1,.22.68h0a.5.5,0,0,1-.44.27h0A.593.593,0,0,1,46.51,33.88ZM16.16,32.19a.506.506,0,0,1,.28-.65h0a.506.506,0,0,1,.65.28h0a.506.506,0,0,1-.28.65h0a.566.566,0,0,1-.18.03h0A.512.512,0,0,1,16.16,32.19Zm31.2-.12a.5.5,0,0,1-.3-.64h0a.493.493,0,0,1,.64-.3h0a.5.5,0,0,1,.3.63h0a.511.511,0,0,1-.47.34h0A.467.467,0,0,1,47.36,32.07ZM15.53,30.23v-.01a.488.488,0,0,1,.36-.6h0a.5.5,0,0,1,.61.36h0a.488.488,0,0,1-.36.6h0a.3.3,0,0,1-.13.02h0A.5.5,0,0,1,15.53,30.23Zm32.45-.06a.513.513,0,0,1-.38-.6h0a.5.5,0,0,1,.6-.38h0a.5.5,0,0,1,.38.6h0a.511.511,0,0,1-.49.39h0C48.05,30.18,48.01,30.17,47.98,30.17ZM15.14,28.2h0a.51.51,0,0,1,.43-.56h0a.5.5,0,0,1,.56.44h0v-.01h0a.485.485,0,0,1-.43.56h0a.127.127,0,0,1-.06.01h0A.5.5,0,0,1,15.14,28.2Zm33.22,0a.508.508,0,0,1-.45-.54h0a.5.5,0,0,1,.55-.45h0a.5.5,0,0,1,.45.55h0a.5.5,0,0,1-.5.45h0A.109.109,0,0,1,48.36,28.2ZM15,26.15a.5.5,0,0,1,.5-.5h0a.487.487,0,0,1,.5.49h0a.493.493,0,0,1-.49.5H15.5A.5.5,0,0,1,15,26.15ZM48,26h0a.5.5,0,0,1,.5-.5h0a.5.5,0,0,1,.5.5h0a.5.5,0,0,1-.5.5h0A.5.5,0,0,1,48,26ZM15.55,24.65a.5.5,0,0,1-.44-.56h0a.5.5,0,0,1,.55-.44h0a.506.506,0,0,1,.44.56h0V24.2h0a.507.507,0,0,1-.5.45h-.05Zm32.33-.59v.01h0a.506.506,0,0,1,.44-.56h0a.5.5,0,0,1,.56.43v.01a.5.5,0,0,1-.44.55h0c-.02,0-.04.01-.06.01h0A.507.507,0,0,1,47.88,24.06ZM15.83,22.67a.5.5,0,0,1-.37-.6h0a.5.5,0,0,1,.6-.38h0a.512.512,0,0,1,.37.61h0a.494.494,0,0,1-.49.38h0A.41.41,0,0,1,15.83,22.67Zm31.71-.51a.483.483,0,0,1,.36-.6h0a.5.5,0,0,1,.61.36h0a.512.512,0,0,1-.37.61h0a.487.487,0,0,1-.12.01h0A.491.491,0,0,1,47.54,22.16ZM16.35,20.74a.509.509,0,0,1-.3-.64v-.01a.5.5,0,0,1,.65-.29h0a.5.5,0,0,1,.29.64h0a.5.5,0,0,1-.47.33h0A.555.555,0,0,1,16.35,20.74Zm30.61-.43a.5.5,0,0,1,.29-.65h0a.492.492,0,0,1,.64.29h0a.5.5,0,0,1-.29.65h0a.467.467,0,0,1-.17.03h0A.5.5,0,0,1,46.96,20.31ZM17.1,18.88a.493.493,0,0,1-.21-.67h0a.493.493,0,0,1,.67-.21h0a.493.493,0,0,1,.21.67h0a.487.487,0,0,1-.44.27h0A.465.465,0,0,1,17.1,18.88Zm29.06-.34h0a.49.49,0,0,1,.21-.67h0a.487.487,0,0,1,.67.21h0a.5.5,0,0,1-.2.67h0a.533.533,0,0,1-.24.06h0A.5.5,0,0,1,46.16,18.54Zm-28.09-1.4a.5.5,0,0,1-.13-.7h0a.5.5,0,0,1,.69-.13h0a.491.491,0,0,1,.13.69h0a.468.468,0,0,1-.41.22h0A.479.479,0,0,1,18.07,17.14Zm27.08-.25a.51.51,0,0,1,.13-.7h0a.489.489,0,0,1,.69.13h0a.488.488,0,0,1-.12.69h0a.521.521,0,0,1-.29.09h0A.507.507,0,0,1,45.15,16.89Zm-25.9-1.37a.505.505,0,0,1-.05-.71h0a.492.492,0,0,1,.7-.04h0a.493.493,0,0,1,.05.7h0a.482.482,0,0,1-.38.17h0A.49.49,0,0,1,19.25,15.52Zm24.7-.16v.01h0a.514.514,0,0,1,.04-.71h0a.5.5,0,0,1,.71.04h0a.5.5,0,0,1-.04.71h0a.516.516,0,0,1-.33.12h0A.517.517,0,0,1,43.95,15.36ZM20.6,14.06a.514.514,0,0,1,.04-.71h0a.5.5,0,0,1,.71.04h0a.493.493,0,0,1-.04.7h0a.46.46,0,0,1-.33.13h0A.507.507,0,0,1,20.6,14.06ZM42.58,14a.5.5,0,0,1-.04-.71h0a.484.484,0,0,1,.7-.04h0a.494.494,0,0,1,.05.7h0a.517.517,0,0,1-.38.17h0A.5.5,0,0,1,42.58,14ZM22.13,12.76a.506.506,0,0,1,.12-.69h0a.5.5,0,0,1,.7.12h0a.5.5,0,0,1-.12.7h0a.521.521,0,0,1-.29.09h0A.518.518,0,0,1,22.13,12.76Zm18.92.05a.51.51,0,0,1-.13-.7h0a.5.5,0,0,1,.7-.13h0a.51.51,0,0,1,.13.7h0a.512.512,0,0,1-.42.21h0A.6.6,0,0,1,41.05,12.81ZM23.81,11.67a.5.5,0,0,1,.2-.68h0a.5.5,0,0,1,.68.21h0a.5.5,0,0,1-.21.67h0a.465.465,0,0,1-.23.06h0A.5.5,0,0,1,23.81,11.67Zm15.58.14a.507.507,0,0,1-.21-.68h0a.507.507,0,0,1,.68-.21h0a.516.516,0,0,1,.21.68h0a.5.5,0,0,1-.45.26h0A.682.682,0,0,1,39.39,11.81ZM25.6,10.78a.506.506,0,0,1,.28-.65h0a.5.5,0,0,1,.65.29h0a.5.5,0,0,1-.29.65h0a.566.566,0,0,1-.18.03h0A.484.484,0,0,1,25.6,10.78Zm12.02.24a.5.5,0,0,1-.29-.65h0a.5.5,0,0,1,.64-.29h0a.5.5,0,0,1,.3.64h0a.516.516,0,0,1-.47.33h0A.566.566,0,0,1,37.62,11.02Zm-10.14-.9a.512.512,0,0,1,.37-.61h0a.506.506,0,0,1,.61.36h0a.512.512,0,0,1-.37.61h0a.5.5,0,0,1-.12.02h0A.522.522,0,0,1,27.48,10.12Zm8.29.33h0a.512.512,0,0,1-.37-.61h0a.5.5,0,0,1,.61-.36h0a.5.5,0,0,1,.37.6h0a.5.5,0,0,1-.49.38h0A.487.487,0,0,1,35.77,10.45Zm-6.33-.76a.5.5,0,0,1,.43-.56h0a.5.5,0,0,1,.56.44h0a.5.5,0,0,1-.43.55h0a.2.2,0,0,1-.07.01h0A.5.5,0,0,1,29.44,9.69Zm4.42.42a.506.506,0,0,1-.44-.56h0a.512.512,0,0,1,.56-.44h0a.512.512,0,0,1,.44.56h0a.506.506,0,0,1-.5.44h-.06ZM31.93,10Zm-.5-.5a.5.5,0,0,1,.49-.5h0a.5.5,0,0,1,.51.5h0a.5.5,0,0,1-.5.5h0A.5.5,0,0,1,31.43,9.5Z"/></g></svg>