<svg id="SvgjsSvg1001" xmlns="http://www.w3.org/2000/svg" viewBox="0 0 263.92 232.44"><defs><style>.cls-1{fill:#66f;}.cls-2{fill:#f0efef;}.cls-3{fill:#cecccc;}.cls-4{fill:#e0e0e0;}.cls-5{fill:#fcd87a;}.cls-5,.cls-6{stroke:#66f;stroke-miterlimit:10;stroke-width:4px;}.cls-6{fill:none;}</style></defs><title>flexibility</title><g id="cloud"><path class="cls-1" d="M113.07,260.2m-17.7-76.39h6.56m-36.3-.09H90.79m144.59-.12a43,43,0,0,0-.38-86,43.1,43.1,0,0,0-43.06-41,44.17,44.17,0,0,0-13.78,2.18,54.41,54.41,0,0,0-99,1.61,34.39,34.39,0,0,0-9.41-1.28A37.14,37.14,0,0,0,32.83,96.27a32,32,0,0,0,.79,7.3,43.07,43.07,0,0,0,21.53,80.36h5.44m144.63-.33h25.41m-36.3.12h5.94m-98.22-4.08H55.11a39,39,0,0,1-18.36-73.47,2,2,0,0,0,1-2.35,28.6,28.6,0,0,1-1-7.76,33,33,0,0,1,33-33,29.69,29.69,0,0,1,10,1.57,2,2,0,0,0,2.52-1.24,50.37,50.37,0,0,1,93-1.36,2.11,2.11,0,0,0,2.64,1.12A37.44,37.44,0,0,1,192,60.55a39,39,0,0,1,39,38.9,2.07,2.07,0,0,0,2,2,39,39,0,0,1,0,78l0,.16H194.45" transform="translate(-12.08 -27.76)"/><path class="cls-2" d="M271.88,140.66a39,39,0,0,1-39,39H194.45l-6,.21c-5.8-.21-19.71-.19-25.85-.21H102.05c-6.14,0,67.92,0,51,0h-98a38.94,38.94,0,0,1-18.36-73.43,2.06,2.06,0,0,0,1-2.35,28.89,28.89,0,0,1-1-7.8,33,33,0,0,1,33-33,30.73,30.73,0,0,1,10,1.57,2.06,2.06,0,0,0,2.52-1.19,50.37,50.37,0,0,1,93-1.41,2.07,2.07,0,0,0,2.64,1.12A38.28,38.28,0,0,1,192,60.51a39,39,0,0,1,39,38.9,2.06,2.06,0,0,0,2,2.06,39,39,0,0,1,38.86,39.19Z" transform="translate(-12.08 -27.76)"/><path class="cls-3" d="M174.08,59.72a50.37,50.37,0,0,0-86,13.08A2.07,2.07,0,0,1,85.59,74a30.74,30.74,0,0,0-10-1.53,33,33,0,0,0-33,33,28.54,28.54,0,0,0,1,7.8,2,2,0,0,1-1,2.35A38.86,38.86,0,0,0,25.45,166a38.81,38.81,0,0,1,11.3-59.74,2.06,2.06,0,0,0,1-2.35,28.89,28.89,0,0,1-1-7.8,33,33,0,0,1,33-33,30.73,30.73,0,0,1,10,1.57,2.06,2.06,0,0,0,2.52-1.19,50.37,50.37,0,0,1,91.87-3.88Z" transform="translate(-12.08 -27.76)"/><path class="cls-4" d="M175.19,62.11a50,50,0,0,0-46.57,31.73A2.06,2.06,0,0,1,126.1,95a31.28,31.28,0,0,0-10-1.52,33,33,0,0,0-33,33,28.58,28.58,0,0,0,1,7.8,2,2,0,0,1-1,2.35A38.83,38.83,0,0,0,62.49,171.1a36.35,36.35,0,0,0,1,8.75H55.27a38.89,38.89,0,0,1-29.66-13.7,38.86,38.86,0,0,1,17.12-50.74,2,2,0,0,0,1-2.35,28.88,28.88,0,0,1-1-7.8,33,33,0,0,1,33-32.79,30.84,30.84,0,0,1,10,1.53,2.06,2.06,0,0,0,2.51-1.2,50.37,50.37,0,0,1,86-13.08Z" transform="translate(-12.08 -27.76)"/></g><g id="gear"><path class="cls-1" d="M146.91,151.51h-4.2a6.18,6.18,0,0,1-6.17-6.17v-1.43a26.55,26.55,0,0,1-4.2-1.74l-1,1a6.18,6.18,0,0,1-8.73,0l-3-3a6.17,6.17,0,0,1,0-8.73l1-1a26.59,26.59,0,0,1-1.75-4.2h-1.42a6.18,6.18,0,0,1-6.17-6.17v-4.21a6.18,6.18,0,0,1,6.17-6.17h1.42a27,27,0,0,1,1.75-4.2l-1-1a6.15,6.15,0,0,1,0-8.72l3-3a6.17,6.17,0,0,1,8.73,0l1,1a26.55,26.55,0,0,1,4.2-1.74V90.65a6.18,6.18,0,0,1,6.17-6.17h4.2a6.17,6.17,0,0,1,6.17,6.17v1.43a26.65,26.65,0,0,1,4.21,1.74l1-1a6.18,6.18,0,0,1,8.73,0l3,3a6.15,6.15,0,0,1,0,8.72l-1,1a28,28,0,0,1,1.74,4.2h1.42a6.18,6.18,0,0,1,6.17,6.17v4.21a6.18,6.18,0,0,1-6.17,6.17h-1.42a27.52,27.52,0,0,1-1.74,4.2l1,1a6.17,6.17,0,0,1,0,8.73l-3,3a6.17,6.17,0,0,1-8.73,0l-1-1a26.65,26.65,0,0,1-4.21,1.74v1.43A6.17,6.17,0,0,1,146.91,151.51ZM133,138.05a23.5,23.5,0,0,0,6,2.49,2,2,0,0,1,1.47,1.9v2.9a2.25,2.25,0,0,0,2.25,2.24h4.2a2.25,2.25,0,0,0,2.25-2.24v-2.9a2,2,0,0,1,1.47-1.9,23.35,23.35,0,0,0,6-2.49,2,2,0,0,1,2.39.3l2,2.05a2.23,2.23,0,0,0,3.17,0l3-3a2.24,2.24,0,0,0,0-3.17l-2.06-2.06a2,2,0,0,1-.3-2.39,22.86,22.86,0,0,0,2.49-6,2,2,0,0,1,1.9-1.47h2.9a2.24,2.24,0,0,0,2.25-2.24v-4.21a2.25,2.25,0,0,0-2.25-2.24h-2.9a2,2,0,0,1-1.9-1.47,22.86,22.86,0,0,0-2.49-6,2,2,0,0,1,.3-2.39l2.06-2.05a2.25,2.25,0,0,0,0-3.18l-3-3a2.24,2.24,0,0,0-3.17,0l-2,2a2,2,0,0,1-2.39.3,23.71,23.71,0,0,0-6-2.49,2,2,0,0,1-1.47-1.9v-2.9a2.25,2.25,0,0,0-2.25-2.24h-4.2a2.25,2.25,0,0,0-2.25,2.24v2.9a2,2,0,0,1-1.47,1.9,23.86,23.86,0,0,0-6,2.49,2,2,0,0,1-2.39-.3l-2-2a2.23,2.23,0,0,0-3.17,0l-3,3a2.24,2.24,0,0,0,0,3.17l2.06,2.06a2,2,0,0,1,.3,2.39,22.86,22.86,0,0,0-2.49,6,2,2,0,0,1-1.9,1.47h-2.9a2.24,2.24,0,0,0-2.24,2.24v4.21a2.24,2.24,0,0,0,2.24,2.24h2.9a2,2,0,0,1,1.9,1.47,22.86,22.86,0,0,0,2.49,6,2,2,0,0,1-.3,2.39l-2.06,2.06a2.25,2.25,0,0,0,0,3.17l3,3a2.23,2.23,0,0,0,3.17,0l2-2.05a2,2,0,0,1,2.39-.3Z" transform="translate(-12.08 -27.76)"/><path class="cls-1" d="M144.81,132.58A14.59,14.59,0,1,1,159.39,118,14.6,14.6,0,0,1,144.81,132.58Zm0-25.24A10.66,10.66,0,1,0,155.47,118a10.67,10.67,0,0,0-10.66-10.66Z" transform="translate(-12.08 -27.76)"/></g><g id="arrow3"><polygon class="cls-5" points="58.82 216.7 76.49 206.5 76.49 226.9 58.82 216.7"/><line class="cls-6" x1="95.14" y1="155.96" x2="95.14" y2="216.7"/><line class="cls-6" x1="97.14" y1="216.7" x2="76.49" y2="216.7"/></g><g id="arrow2"><line class="cls-5" x1="195.14" y1="156.14" x2="195.14" y2="187.34"/><line class="cls-5" x1="193.14" y1="187.34" x2="213.8" y2="187.34"/><polygon class="cls-5" points="231.46 187.34 213.79 177.14 213.79 197.54 231.46 187.34"/></g><g id="arrow"><polygon class="cls-5" points="193.14 216.58 175.47 206.38 175.47 226.78 193.14 216.58"/><line class="cls-6" x1="156.81" y1="155.84" x2="156.81" y2="216.58"/><line class="cls-6" x1="154.81" y1="216.58" x2="175.47" y2="216.58"/></g><g id="arrow2-2" data-name="arrow2"><line class="cls-6" x1="64.12" y1="156.14" x2="64.12" y2="187.34"/><line class="cls-6" x1="66.12" y1="187.34" x2="45.47" y2="187.34"/><polygon class="cls-5" points="27.8 187.34 45.47 177.14 45.47 197.54 27.8 187.34"/></g></svg>