<svg id="Layer_5" enable-background="new 0 0 64 64" height="512" viewBox="0 0 64 64" width="512" xmlns="http://www.w3.org/2000/svg"><g><path d="m32 18c-7.72 0-14 6.28-14 14s6.28 14 14 14 14-6.28 14-14-6.28-14-14-14zm0 26c-6.617 0-12-5.383-12-12s5.383-12 12-12 12 5.383 12 12-5.383 12-12 12z"/><path d="m49.394 36.59 2.606-.869v-7.441l-2.606-.869c-.411-1.561-1.032-3.057-1.852-4.46l1.231-2.461-5.263-5.263-2.461 1.231c-1.403-.819-2.899-1.44-4.46-1.852l-.868-2.606h-7.441l-.869 2.606c-1.561.411-3.057 1.032-4.46 1.852l-2.461-1.231-5.263 5.263 1.231 2.461c-.819 1.403-1.44 2.899-1.852 4.46l-2.606.868v7.441l2.606.869c.411 1.561 1.032 3.057 1.852 4.46l-1.231 2.461 5.263 5.263 2.461-1.231c1.403.819 2.899 1.44 4.46 1.852l.868 2.606h7.441l.869-2.606c1.561-.411 3.057-1.032 4.46-1.852l2.461 1.231 5.263-5.263-1.231-2.461c.819-1.403 1.44-2.899 1.852-4.459zm-6.278 9.75-2.167-1.084-.477.298c-1.514.948-3.156 1.63-4.881 2.026l-.548.126-.764 2.294h-4.559l-.765-2.294-.548-.126c-1.725-.396-3.367-1.078-4.881-2.026l-.477-.298-2.167 1.084-3.224-3.224 1.084-2.167-.298-.477c-.948-1.514-1.63-3.156-2.026-4.881l-.126-.548-2.292-.764v-4.559l2.294-.765.126-.548c.396-1.725 1.078-3.367 2.026-4.881l.298-.477-1.084-2.167 3.224-3.224 2.167 1.084.477-.298c1.514-.948 3.156-1.63 4.881-2.026l.548-.126.764-2.292h4.559l.765 2.294.548.126c1.725.396 3.367 1.078 4.881 2.026l.477.298 2.167-1.084 3.224 3.224-1.084 2.167.298.477c.948 1.514 1.63 3.156 2.026 4.881l.126.548 2.292.764v4.559l-2.294.765-.126.548c-.396 1.725-1.078 3.367-2.026 4.881l-.298.477 1.084 2.167z"/><path d="m33 22h-2v15h-2v2h2v3h2v-3h2v-2h-2z"/><path d="m39 31v-7h-2v7h-2v2h2v7h2v-7h2v-2z"/><path d="m29 31v-2h-2v-5h-2v5h-2v2h2v9h2v-9z"/><path d="m5 5h6v2h-6z"/><path d="m5 9h6v2h-6z"/><path d="m5 13h6v2h-6z"/><path d="m5 49h6v2h-6z"/><path d="m5 53h6v2h-6z"/><path d="m5 57h6v2h-6z"/><path d="m49 1v18h7v10h-2v2h4v-12h5v-18zm12 16h-10v-14h10z"/><path d="m53 5h6v2h-6z"/><path d="m53 9h6v2h-6z"/><path d="m53 13h6v2h-6z"/><path d="m53 49h6v2h-6z"/><path d="m53 53h6v2h-6z"/><path d="m53 57h6v2h-6z"/><path d="m58 33h-4v2h2v10h-7v18h14v-18h-5zm3 28h-10v-14h10z"/><path d="m6 31h4v-2h-2v-10h7v-18h-14v18h5zm-3-28h10v14h-10z"/><path d="m8 35h2v-2h-4v12h-5v18h14v-18h-7zm5 26h-10v-14h10z"/></g></svg>