<?xml version="1.0" encoding="iso-8859-1"?>
<!-- Generator: Adobe Illustrator 23.0.2, SVG Export Plug-In . SVG Version: 6.00 Build 0)  -->
<svg version="1.1" id="Layer_1" xmlns="http://www.w3.org/2000/svg" xmlns:xlink="http://www.w3.org/1999/xlink" x="0px" y="0px"
	 viewBox="0 0 1000 1000" style="enable-background:new 0 0 1000 1000;" xml:space="preserve">
<path id="XMLID_29_" style="fill:none;stroke:#601B23;stroke-width:6;stroke-linecap:round;stroke-linejoin:round;stroke-miterlimit:10;" d="
	M490.064,655.505c-9.386,1.18-16.921,14.353-18.271,25.309c-0.39,3.181-0.591,6.327-0.591,9.495
	c0.022,10.381,2.169,20.253,6.218,30.363c4.035,9.89,9.971,20.018,17.226,25.827c7.255-5.81,13.191-15.938,17.226-25.828
	c4.049-10.11,6.197-19.982,6.219-30.363c0-3.168-0.201-6.314-0.591-9.495c-1.35-10.956-8.885-24.13-18.271-25.309
	C496.179,655.167,493.112,655.167,490.064,655.505z"/>
<path id="XMLID_35_" style="fill:#E36535;" d="M490.064,655.505c-9.386,1.18-16.921,14.353-18.271,25.309
	c-0.39,3.181-0.591,6.327-0.591,9.495c0.022,10.381,2.169,20.253,6.218,30.363c4.035,9.89,9.971,20.018,17.226,25.827
	c7.255-5.81,13.191-15.938,17.226-25.828c4.049-10.11,6.197-19.982,6.219-30.363c0-3.168-0.201-6.314-0.591-9.495
	c-1.35-10.956-8.885-24.13-18.271-25.309C496.179,655.167,493.112,655.167,490.064,655.505z"/>
<path id="XMLID_178_" style="fill:#F4A045;" d="M536.57,718.2c-0.04,18.64-3.88,36.37-11.12,54.52c-0.25,0.62-0.51,1.24-0.77,1.86
	c-7.19,17.16-17.51,34.44-30.03,44.51c-12.89-10.36-23.44-28.35-30.65-45.99c-0.06-0.13-0.11-0.25-0.16-0.38
	c-7.24-18.15-11.08-35.88-11.12-54.52c0-5.69,0.36-11.34,1.06-17.05c2.39-19.45,15.58-42.78,32.1-45.35
	c0.19-0.04,0.38-0.07,0.57-0.09c5.23-0.58,10.49-0.61,15.72-0.07c0.22,0.02,0.45,0.04,0.67,0.07c16.78,2.11,30.26,25.77,32.67,45.44
	C536.21,706.86,536.57,712.51,536.57,718.2z"/>
<path id="XMLID_177_" style="fill:none;stroke:#601B23;stroke-width:6;stroke-linecap:round;stroke-linejoin:round;stroke-miterlimit:10;" d="
	M536.57,718.2c-0.04,18.64-3.88,36.37-11.12,54.52c-0.25,0.62-0.51,1.24-0.77,1.86c-7.19,17.16-17.51,34.44-30.03,44.51
	c-12.89-10.36-23.44-28.35-30.65-45.99c-0.06-0.13-0.11-0.25-0.16-0.38c-7.24-18.15-11.08-35.88-11.12-54.52
	c0-5.69,0.36-11.34,1.06-17.05c2.39-19.45,15.58-42.78,32.1-45.35c0.19-0.04,0.38-0.07,0.57-0.09c5.23-0.58,10.49-0.61,15.72-0.07
	c0.22,0.02,0.45,0.04,0.67,0.07c16.78,2.11,30.26,25.77,32.67,45.44C536.21,706.86,536.57,712.51,536.57,718.2z"/>
<rect id="XMLID_14_" style="fill:#554D84;" width="1000" height="1000"/>
<path id="XMLID_62_" style="fill:#FFFFFF;" d="M1000,821.247c-15.243,4.482-27.639,15.612-33.825,30.042
	c-12.029-4.301-24.987-6.651-38.495-6.651c-40.004,0-75.203,20.553-95.629,51.671c-10.59-4.955-22.4-7.738-34.864-7.738
	c-5.452,0-10.776,0.543-15.933,1.554c0.015-0.518,0.039-1.033,0.039-1.554c0-25.483-17.954-46.764-41.899-51.909
	c-9.159-31.531-38.242-54.586-72.728-54.586c-28.69,0-53.651,15.953-66.506,39.471c-8.869-8.334-20.79-13.457-33.919-13.457
	c-7.5,0-14.6,1.66-20.97,4.64c-7.84-12.08-14.74-24.83-20.59-38.15c-14.61-33.22-22.72-69.95-22.72-108.58
	c0-3.47,0.07-6.92,0.21-10.36c1.677-44.701,14.233-86.618,35.088-123.189h-86.48c20.878,36.616,33.44,78.588,35.102,123.349
	c0.13,3.38,0.19,6.78,0.19,10.2c0,38.05-7.87,74.26-22.07,107.1c-9.27,21.42-21.23,41.4-35.46,59.52
	c-12.09-14.96-30.6-24.53-51.34-24.53c-20.781,0-39.309,9.605-51.406,24.613c-9.663-5.714-20.928-9.006-32.968-9.006
	c-19.445,0-36.879,8.567-48.769,22.118c-17.565-26.117-47.391-43.3-81.231-43.3c-54.028,0-97.826,43.798-97.826,97.826
	c0,0.287,0.008,0.571,0.011,0.857C28.353,919.707,2.66,956.743,0.21,1000h236.02h483.853H1000V821.247z"/>
<path id="XMLID_79_" style="fill:#C11A4D;" d="M374.025,502.812l-32.597,12.651v-61.941l100.125-78.063v117.095l-24.173,12.701
	C404.423,498.479,388.726,497.106,374.025,502.812z"/>
<path id="XMLID_19_" style="fill:#CF264D;" d="M330.78,531.721c-10.172-14.782-16.084-32.261-16.104-51.012
	c-0.026-23.677,9.317-45.361,24.824-62.139c15.543,16.744,24.933,38.408,24.958,62.085c0.02,18.751-5.853,36.242-15.993,51.047
	L330.78,531.721z"/>
<path id="XMLID_83_" style="opacity:0.72;fill:#A5143A;" d="M341.428,515.463l32.443-12.591c0.351-8.625-0.207-17.381-1.795-26.172
	c-2.389-13.221-6.892-25.573-13.129-36.837l-17.519,13.659V515.463z"/>
<polygon id="XMLID_63_" style="opacity:0.23;fill:#F4A15D;" points="345.571,470.937 441.553,396.104 441.553,375.458 
	341.428,453.522 341.428,515.463 345.571,513.855 "/>
<path id="XMLID_69_" style="opacity:0.72;fill:#A5143A;" d="M401.745,499.985c5.468,0.928,10.747,2.713,15.635,5.269l24.173-12.701
	V375.458l-42.154,32.866c-2.053,12.679-3.145,25.967-3.145,39.66C396.254,466.196,398.19,483.688,401.745,499.985z"/>
<path id="XMLID_72_" style="fill:none;stroke:#601B23;stroke-width:6;stroke-linecap:round;stroke-linejoin:round;stroke-miterlimit:10;" d="
	M374.025,502.812l-32.597,12.651v-61.941l100.125-78.063v117.095l-24.173,12.701C404.423,498.479,388.726,497.106,374.025,502.812z"
	/>
<path id="XMLID_34_" style="fill:#CF264D;" d="M330.78,531.721c-10.172-14.782-16.084-32.261-16.104-51.012
	c-0.026-23.677,9.317-45.361,24.824-62.139c15.543,16.744,24.933,38.408,24.958,62.085c0.02,18.751-5.853,36.242-15.993,51.047
	L330.78,531.721z"/>
<path id="XMLID_37_" style="opacity:0.23;fill:#F4A15D;" d="M338.027,418.57c1.221,1.321,2.39,2.684,3.533,4.065
	c-10.438,16.049-16.446,34.786-16.468,54.81c-0.021,19.791,3.014,38.325,13.196,54.27l-9.226-0.013
	c-10.14-14.805-16.014-32.295-15.993-51.047C313.095,456.978,322.485,435.314,338.027,418.57z"/>
<path id="XMLID_4_" style="opacity:0.32;fill:#F4A15D;" d="M338.027,418.57c0.414,0.448,0.806,0.914,1.212,1.369
	c-11.687,17.255-18.445,37.592-18.468,59.376c-0.021,18.907,5.062,36.718,14.018,52.393l-5.727-0.006
	c-10.14-14.805-16.014-32.295-15.993-51.047C313.095,456.978,322.485,435.314,338.027,418.57z"/>
<path id="XMLID_9_" style="opacity:0.37;fill:#A5143A;" d="M364.458,480.655c-0.026-23.677-9.415-45.341-24.958-62.085
	c-1.221,1.321-2.39,2.684-3.533,4.065c10.438,16.049,16.446,34.786,16.468,54.81c0.021,19.791-5.826,38.325-16.008,54.27
	l12.038-0.013C358.605,516.897,364.479,499.406,364.458,480.655z"/>
<path id="XMLID_45_" style="opacity:0.72;fill:#A5143A;" d="M364.458,480.655c-0.026-23.677-9.415-45.341-24.958-62.085
	c-0.414,0.448-0.806,0.914-1.212,1.369c11.687,17.255,18.445,37.592,18.468,59.376c0.021,18.907-5.062,36.718-14.018,52.393
	l5.727-0.006C358.605,516.897,364.479,499.406,364.458,480.655z"/>
<path id="XMLID_10_" style="opacity:0.37;fill:#A5143A;" d="M339.5,418.57c-1.221,1.321-2.39,2.684-3.533,4.065
	c10.438,16.049,16.446,34.786,16.468,54.81c0.021,19.791-5.826,38.325-16.008,54.27l12.038-0.013
	c10.14-14.805,16.014-32.295,15.993-51.047C364.433,456.978,355.043,435.314,339.5,418.57z"/>
<path id="XMLID_16_" style="opacity:0.72;fill:#A5143A;" d="M339.5,418.57c-0.414,0.448-0.806,0.914-1.212,1.369
	c11.687,17.255,18.445,37.592,18.468,59.376c0.021,18.907-5.062,36.718-14.018,52.393l5.727-0.006
	c10.14-14.805,16.014-32.295,15.993-51.047C364.433,456.978,355.043,435.314,339.5,418.57z"/>
<path id="XMLID_95_" style="fill:#601B23;" d="M350.889,436.629c-3.67-6.479-8.105-12.537-13.225-18.052
	c-5.108,5.526-9.53,11.594-13.185,18.081L350.889,436.629z"/>
<path id="XMLID_28_" style="fill:none;stroke:#601B23;stroke-width:6;stroke-linecap:round;stroke-linejoin:round;stroke-miterlimit:10;" d="
	M330.78,531.721c-10.172-14.782-16.084-32.261-16.104-51.012c-0.026-23.677,9.317-45.361,24.824-62.139
	c15.543,16.744,24.933,38.408,24.958,62.085c0.02,18.751-5.853,36.242-15.993,51.047L330.78,531.721z"/>
<path id="XMLID_31_" style="fill:#CF264D;" d="M460.679,608.879c0,0-12.143,2.617-29.503,19.977
	c-6.335,6.335-16.245,19.149-23.491,28.85c-3.012,4.032-9.418,1.985-9.531-3.047l-2.383-106.476
	c-0.484-3.002,0.326-6.068,2.229-8.439l26.152-32.582L460.679,608.879z"/>
<path id="XMLID_24_" style="opacity:0.32;fill:#F4A15D;" d="M398.014,656.766L398.014,656.766c5.732-0.814,10.012-5.69,10.075-11.48
	l1.078-99.011c-0.484-3.002,0.326-6.068,2.229-8.439l16.423-20.46l-3.667-10.212L398,539.745c-1.903,2.371-2.713,5.437-2.229,8.439
	L398.014,656.766z"/>
<path id="XMLID_84_" style="opacity:0.72;fill:#A5143A;" d="M460.679,608.879l-36.527-101.716l-14.533,18.107
	c7.784,30.034,20.082,60.494,36.68,90.861C455.179,610.071,460.679,608.879,460.679,608.879z"/>
<path id="XMLID_21_" style="fill:none;stroke:#601B23;stroke-width:6;stroke-linecap:round;stroke-linejoin:round;stroke-miterlimit:10;" d="
	M460.679,608.879c0,0-12.143,2.617-29.503,19.977c-6.335,6.335-16.245,19.149-23.491,28.85c-3.012,4.032-9.418,1.985-9.531-3.047
	l-2.383-106.476c-0.484-3.002,0.326-6.068,2.229-8.439l26.152-32.582L460.679,608.879z"/>
<line id="XMLID_32_" style="fill:none;stroke:#601B23;stroke-width:4;stroke-linecap:round;stroke-linejoin:round;stroke-miterlimit:10;" x1="321.343" y1="518.499" x2="354.202" y2="518.464"/>
<path id="XMLID_192_" style="fill:#CF264D;" d="M330.78,531.721c-10.172-14.782-16.084-32.261-16.104-51.012
	c-0.026-23.677,9.317-45.361,24.824-62.139c15.543,16.744,24.933,38.408,24.958,62.085c0.02,18.751-5.853,36.242-15.993,51.047
	L330.78,531.721z"/>
<path id="XMLID_161_" style="fill:#CF264D;" d="M330.78,531.721c-10.172-14.782-16.084-32.261-16.104-51.012
	c-0.026-23.677,9.317-45.361,24.824-62.139c15.543,16.744,24.933,38.408,24.958,62.085c0.02,18.751-5.853,36.242-15.993,51.047
	L330.78,531.721z"/>
<path id="XMLID_155_" style="opacity:0.23;fill:#F4A15D;" d="M338.027,418.57c1.221,1.321,2.39,2.684,3.533,4.065
	c-10.438,16.049-16.446,34.786-16.468,54.81c-0.021,19.791,3.014,38.325,13.196,54.27l-9.226-0.013
	c-10.14-14.805-16.014-32.295-15.993-51.047C313.095,456.978,322.485,435.314,338.027,418.57z"/>
<path id="XMLID_147_" style="opacity:0.32;fill:#F4A15D;" d="M338.027,418.57c0.414,0.448,0.806,0.914,1.212,1.369
	c-11.687,17.255-18.445,37.592-18.468,59.376c-0.021,18.907,5.062,36.718,14.018,52.393l-5.727-0.006
	c-10.14-14.805-16.014-32.295-15.993-51.047C313.095,456.978,322.485,435.314,338.027,418.57z"/>
<path id="XMLID_144_" style="opacity:0.37;fill:#A5143A;" d="M364.458,480.655c-0.026-23.677-9.415-45.341-24.958-62.085
	c-1.221,1.321-2.39,2.684-3.533,4.065c10.438,16.049,16.446,34.786,16.468,54.81c0.021,19.791-5.826,38.325-16.008,54.27
	l12.038-0.013C358.605,516.897,364.479,499.406,364.458,480.655z"/>
<path id="XMLID_140_" style="opacity:0.72;fill:#A5143A;" d="M364.458,480.655c-0.026-23.677-9.415-45.341-24.958-62.085
	c-0.414,0.448-0.806,0.914-1.212,1.369c11.687,17.255,18.445,37.592,18.468,59.376c0.021,18.907-5.062,36.718-14.018,52.393
	l5.727-0.006C358.605,516.897,364.479,499.406,364.458,480.655z"/>
<path id="XMLID_134_" style="opacity:0.37;fill:#A5143A;" d="M339.5,418.57c-1.221,1.321-2.39,2.684-3.533,4.065
	c10.438,16.049,16.446,34.786,16.468,54.81c0.021,19.791-5.826,38.325-16.008,54.27l12.038-0.013
	c10.14-14.805,16.014-32.295,15.993-51.047C364.433,456.978,355.043,435.314,339.5,418.57z"/>
<path id="XMLID_130_" style="opacity:0.72;fill:#A5143A;" d="M339.5,418.57c-0.414,0.448-0.806,0.914-1.212,1.369
	c11.687,17.255,18.445,37.592,18.468,59.376c0.021,18.907-5.062,36.718-14.018,52.393l5.727-0.006
	c10.14-14.805,16.014-32.295,15.993-51.047C364.433,456.978,355.043,435.314,339.5,418.57z"/>
<path id="XMLID_67_" style="fill:#601B23;" d="M352.725,436.623c-3.67-6.479-8.105-12.537-13.224-18.052
	c-5.108,5.526-9.53,11.594-13.185,18.081L352.725,436.623z"/>
<path id="XMLID_39_" style="fill:none;stroke:#601B23;stroke-width:6;stroke-linecap:round;stroke-linejoin:round;stroke-miterlimit:10;" d="
	M330.78,531.721c-10.172-14.782-16.084-32.261-16.104-51.012c-0.026-23.677,9.317-45.361,24.824-62.139
	c15.543,16.744,24.933,38.408,24.958,62.085c0.02,18.751-5.853,36.242-15.993,51.047L330.78,531.721z"/>
<line id="XMLID_12_" style="fill:none;stroke:#601B23;stroke-width:4;stroke-linecap:round;stroke-linejoin:round;stroke-miterlimit:10;" x1="321.343" y1="518.499" x2="354.202" y2="518.464"/>
<path id="XMLID_196_" style="fill:#C11A4D;" d="M609.537,502.812l32.597,12.651v-61.941l-100.125-78.063v117.095l24.173,12.701
	C579.139,498.479,594.836,497.106,609.537,502.812z"/>
<path id="XMLID_188_" style="opacity:0.72;fill:#A5143A;" d="M642.134,515.463l-32.443-12.591
	c-0.351-8.625,0.207-17.381,1.795-26.172c2.389-13.221,6.892-25.573,13.129-36.837l17.519,13.659V515.463z"/>
<polygon id="XMLID_181_" style="opacity:0.23;fill:#F4A15D;" points="637.991,470.937 542.009,396.104 542.009,375.458 
	642.134,453.522 642.134,515.463 637.991,513.855 "/>
<path id="XMLID_175_" style="opacity:0.72;fill:#A5143A;" d="M581.817,499.985c-5.468,0.928-10.747,2.713-15.635,5.269
	l-24.173-12.701V375.458l42.154,32.866c2.053,12.679,3.145,25.967,3.145,39.66C587.309,466.196,585.372,483.688,581.817,499.985z"/>
<path id="XMLID_166_" style="fill:none;stroke:#601B23;stroke-width:6;stroke-linecap:round;stroke-linejoin:round;stroke-miterlimit:10;" d="
	M609.537,502.812l32.597,12.651v-61.941l-100.125-78.063v117.095l24.173,12.701C579.139,498.479,594.836,497.106,609.537,502.812z"
	/>
<path id="XMLID_59_" style="fill:#CF264D;" d="M522.883,608.879c0,0,12.143,2.617,29.503,19.977
	c6.335,6.335,16.245,19.149,23.491,28.85c3.012,4.032,9.418,1.985,9.531-3.047l2.383-106.476c0.484-3.002-0.326-6.068-2.229-8.439
	l-26.152-32.582L522.883,608.879z"/>
<path id="XMLID_48_" style="opacity:0.72;fill:#A5143A;" d="M585.548,656.766L585.548,656.766
	c-5.732-0.814-10.012-5.69-10.075-11.48l-1.078-99.011c0.484-3.002-0.326-6.068-2.229-8.439l-16.423-20.46l3.667-10.212
	l26.152,32.581c1.903,2.371,2.713,5.437,2.229,8.439L585.548,656.766z"/>
<path id="XMLID_47_" style="opacity:0.72;fill:#A5143A;" d="M522.883,608.879l36.527-101.716l14.533,18.107
	c-7.784,30.034-20.082,60.494-36.68,90.861C528.383,610.071,522.883,608.879,522.883,608.879z"/>
<path id="XMLID_33_" style="fill:none;stroke:#601B23;stroke-width:6;stroke-linecap:round;stroke-linejoin:round;stroke-miterlimit:10;" d="
	M522.883,608.879c0,0,12.143,2.617,29.503,19.977c6.335,6.335,16.245,19.149,23.491,28.85c3.012,4.032,9.418,1.985,9.531-3.047
	l2.383-106.476c0.484-3.002-0.326-6.068-2.229-8.439l-26.152-32.582L522.883,608.879z"/>
<path id="XMLID_22_" style="fill:#4E8280;" d="M522.4,666.148c1.147-11.876-0.505-23.084-20.482-52.647
	c-3.333-4.749-11.213-4.749-14.546,0c-19.977,29.564-21.629,40.772-20.482,52.647c0.216,1.509,2.943,3.162,4.616,2.56
	c11.513-5.877,34.766-5.877,46.279,0C519.458,669.31,522.184,667.658,522.4,666.148z"/>
<g id="XMLID_107_" style="opacity:0.32;">
	<g id="XMLID_222_">
		<g id="XMLID_225_">
			<path id="XMLID_226_" style="fill:#F4A15D;" d="M477.028,666.148c-1.147-11.876,0.505-23.084,20.482-52.647
				c0.603-0.859,1.358-1.557,2.205-2.106c-3.834-2.483-9.611-1.785-12.342,2.106c-19.977,29.564-21.629,40.772-20.482,52.647
				c0.216,1.509,2.943,3.162,4.616,2.56c1.657-0.846,3.563-1.566,5.637-2.168C477.09,666.409,477.046,666.278,477.028,666.148z"/>
		</g>
		<g id="XMLID_223_">
			<path id="XMLID_224_" style="fill:#F4A15D;" d="M499.714,664.47c6.904,0.462,13.438,1.873,18.071,4.238
				c1.529,0.55,3.931-0.783,4.5-2.168C515.749,664.641,507.499,663.95,499.714,664.47z"/>
		</g>
	</g>
</g>
<g id="XMLID_46_">
	<g id="XMLID_168_">
		<g id="XMLID_169_">
			<path id="XMLID_170_" style="fill:#37605D;" d="M490.946,613.501c-0.268-0.383-0.575-0.723-0.898-1.044
				c3.684-3.663,10.583-3.323,13.648,1.044c19.977,29.564,21.629,40.772,20.482,52.647c-0.216,1.509-2.943,3.162-4.616,2.56
				c-2.297-1.173-5.067-2.107-8.112-2.812C512.549,654.113,510.781,642.855,490.946,613.501z"/>
		</g>
	</g>
</g>
<path id="XMLID_17_" style="fill:none;stroke:#601B23;stroke-width:6;stroke-linecap:round;stroke-linejoin:round;stroke-miterlimit:10;" d="
	M522.4,666.148c1.147-11.876-0.505-23.084-20.482-52.647c-3.333-4.749-11.213-4.749-14.546,0
	c-19.977,29.564-21.629,40.772-20.482,52.647c0.216,1.509,2.943,3.162,4.616,2.56c11.513-5.877,34.766-5.877,46.279,0
	C519.458,669.31,522.184,667.658,522.4,666.148z"/>
<path id="XMLID_15_" style="fill:#CF264D;" d="M517.189,630.225c47.072-77.122,64.222-152.833,53.644-215.923
	c-9.192-54.824-38.752-94.32-76.187-118.974c-37.436,24.654-66.995,64.15-76.187,118.974
	c-10.578,63.09,6.572,138.802,53.644,215.923H517.189z"/>
<path id="XMLID_20_" style="opacity:0.23;fill:#F4A15D;" d="M454.242,415.365c5.965-49.606,21.625-89.034,42.609-118.546
	c-0.734-0.499-1.466-1.003-2.206-1.49c-37.435,24.654-66.995,64.15-76.187,118.974c-10.578,63.09,6.572,138.802,53.644,215.924
	h9.519C455.36,553.23,446.58,479.083,454.242,415.365z"/>
<path id="XMLID_54_" style="opacity:0.37;fill:#A5143A;" d="M570.833,414.302c-9.125-54.419-38.321-93.728-75.364-118.418
	c6.896,11.125,15.656,27.111,23.075,47.408c13.473,36.858,14.992,67.32,15.789,86.375c3.597,85.915-29.258,180.907-36.242,200.559
	h19.098C564.261,553.104,581.411,477.392,570.833,414.302z"/>
<path id="XMLID_5_" style="opacity:0.72;fill:#A5143A;" d="M570.833,414.302c-9.192-54.824-38.752-94.32-76.187-118.974
	c-0.961,0.633-1.914,1.282-2.864,1.935c14.242,11.136,24.996,22.96,33.219,34.404c73.577,102.397,2.989,255.74-6.667,276
	c-0.41-13.776-2.215-30.921-7.333-50c-3.276-12.212-7.293-22.914-11.333-32c-1.484,33.895-2.969,67.79-4.454,101.685h12.442
	c-0.322,0.958-0.634,1.915-0.961,2.874h10.494C564.261,553.104,581.411,477.392,570.833,414.302z"/>
<path id="XMLID_6_" style="opacity:0.32;fill:#F4A15D;" d="M431,431.667c1.415-16.03,6.579-67.967,38.667-110.667
	c5.069-6.746,12.717-15.798,12.111-16.34c-0.855-0.763-18.462,15.096-31.006,32.014c-15.678,21.146-27.177,46.992-32.313,77.628
	c-10.578,63.09,6.572,138.802,53.644,215.924h4.067C463.255,604.517,454.723,581.368,449,563
	c-3.827-12.282-10.514-34.068-14.667-63.333C431.553,480.075,428.577,459.105,431,431.667z"/>
<circle id="XMLID_13_" style="opacity:0.72;fill:#A5143A;stroke:#A5143A;stroke-width:6;stroke-linecap:round;stroke-linejoin:round;stroke-miterlimit:10;" cx="500" cy="425.076" r="27.154"/>
<path id="XMLID_11_" style="fill:none;stroke:#601B23;stroke-width:6;stroke-linecap:round;stroke-linejoin:round;stroke-miterlimit:10;" d="
	M517.189,630.225c47.072-77.122,64.222-152.833,53.644-215.923c-9.192-54.824-38.752-94.32-76.187-118.974
	c-37.436,24.654-66.995,64.15-76.187,118.974c-10.578,63.09,6.572,138.802,53.644,215.923H517.189z"/>
<circle id="XMLID_25_" style="fill:#ABCFD8;" cx="494.646" cy="420.933" r="27.154"/>
<circle id="XMLID_26_" style="opacity:0.93;fill:#E2F0F2;" cx="490.896" cy="419.433" r="16.354"/>
<circle id="XMLID_1_" style="fill:none;stroke:#601B23;stroke-width:6;stroke-linecap:round;stroke-linejoin:round;stroke-miterlimit:10;" cx="494.646" cy="420.933" r="27.154"/>
<path id="XMLID_44_" style="fill:#601B23;" d="M456.163,329.783c24.946-8.631,52.164-8.578,77.085,0.148
	c-11.272-13.697-24.365-25.227-38.603-34.603C480.459,304.671,467.407,316.15,456.163,329.783z"/>
<path id="XMLID_23_" style="fill:none;stroke:#601B23;stroke-width:6;stroke-linecap:round;stroke-linejoin:round;stroke-miterlimit:10;" d="
	M456.163,329.783c24.946-8.631,52.164-8.578,77.085,0.148c-11.272-13.697-24.365-25.227-38.603-34.603
	C480.459,304.671,467.407,316.15,456.163,329.783z"/>
<path id="XMLID_18_" style="fill:#BC1D4E;" d="M494.646,677L494.646,677c1.093,0,2.006-1.226,2.105-2.827l7.543-122.431
	c0.779-12.642-3.196-24.348-9.081-27.069c-0.368-0.17-0.768-0.17-1.135,0c-5.885,2.721-9.86,14.427-9.081,27.069l7.543,122.431
	C492.639,675.774,493.552,677,494.646,677z"/>
<path id="XMLID_2_" style="opacity:0.74;fill:#A5143A;" d="M494.646,677L494.646,677c1.093,0,2.006-1.226,2.105-2.827l7.543-122.431
	c0.779-12.642-3.196-24.348-9.081-27.069c-0.368-0.17-0.768-0.17-1.135,0c-5.885,2.721-9.86,14.427-9.081,27.069l7.543,122.431
	C492.639,675.774,493.552,677,494.646,677z"/>
<g id="XMLID_8_" style="opacity:0.53;">
	<g id="XMLID_199_">
		<g id="XMLID_202_">
			<path id="XMLID_203_" style="fill:#F4A15D;" d="M494.078,524.672c-5.885,2.721-9.86,14.427-9.081,27.069l7.543,122.431
				c0.081,1.312,0.712,2.36,1.537,2.7V524.672z"/>
		</g>
		<g id="XMLID_200_">
			<path id="XMLID_201_" style="fill:#F4A15D;" d="M494.078,524.672h1.135C494.845,524.502,494.446,524.502,494.078,524.672z"/>
		</g>
	</g>
</g>
<path id="XMLID_27_" style="fill:none;stroke:#601B23;stroke-width:6;stroke-linecap:round;stroke-linejoin:round;stroke-miterlimit:10;" d="
	M494.646,677L494.646,677c1.093,0,2.006-1.226,2.105-2.827l7.543-122.431c0.779-12.642-3.196-24.348-9.081-27.069
	c-0.368-0.17-0.768-0.17-1.135,0c-5.885,2.721-9.86,14.427-9.081,27.069l7.543,122.431C492.639,675.774,493.552,677,494.646,677z"/>
<path id="XMLID_255_" style="fill:#CF264D;" d="M641.409,531.721c-10.172-14.782-16.084-32.261-16.104-51.012
	c-0.026-23.677,9.317-45.361,24.824-62.139c15.543,16.744,24.933,38.408,24.958,62.085c0.02,18.751-5.853,36.242-15.994,51.047
	L641.409,531.721z"/>
<path id="XMLID_249_" style="fill:#CF264D;" d="M641.409,531.721c-10.172-14.782-16.084-32.261-16.104-51.012
	c-0.026-23.677,9.317-45.361,24.824-62.139c15.543,16.744,24.933,38.408,24.958,62.085c0.02,18.751-5.853,36.242-15.994,51.047
	L641.409,531.721z"/>
<path id="XMLID_245_" style="opacity:0.23;fill:#F4A15D;" d="M648.656,418.57c1.221,1.321,2.39,2.684,3.533,4.065
	c-10.438,16.049-16.446,34.786-16.468,54.81c-0.021,19.791,3.014,38.325,13.196,54.27l-9.226-0.013
	c-10.14-14.805-16.014-32.295-15.993-51.047C623.723,456.978,633.113,435.314,648.656,418.57z"/>
<path id="XMLID_242_" style="opacity:0.32;fill:#F4A15D;" d="M648.656,418.57c0.414,0.448,0.806,0.914,1.212,1.369
	c-11.687,17.255-18.445,37.592-18.468,59.376c-0.021,18.907,5.062,36.718,14.018,52.393l-5.727-0.006
	c-10.14-14.805-16.014-32.295-15.993-51.047C623.723,456.978,633.113,435.314,648.656,418.57z"/>
<path id="XMLID_239_" style="opacity:0.37;fill:#A5143A;" d="M675.087,480.655c-0.026-23.677-9.416-45.341-24.958-62.085
	c-1.221,1.321-2.39,2.684-3.533,4.065c10.438,16.049,16.446,34.786,16.468,54.81c0.021,19.791-5.826,38.325-16.008,54.27
	l12.038-0.013C669.233,516.897,675.107,499.406,675.087,480.655z"/>
<path id="XMLID_236_" style="opacity:0.72;fill:#A5143A;" d="M675.087,480.655c-0.026-23.677-9.416-45.341-24.958-62.085
	c-0.414,0.448-0.806,0.914-1.212,1.369c11.687,17.255,18.445,37.592,18.468,59.376c0.021,18.907-5.062,36.718-14.018,52.393
	l5.727-0.006C669.233,516.897,675.107,499.406,675.087,480.655z"/>
<path id="XMLID_233_" style="opacity:0.37;fill:#A5143A;" d="M650.128,418.57c-1.221,1.321-2.39,2.684-3.533,4.065
	c10.438,16.049,16.446,34.786,16.468,54.81c0.021,19.791-5.826,38.325-16.008,54.27l12.038-0.013
	c10.14-14.805,16.014-32.295,15.993-51.047C675.061,456.978,665.671,435.314,650.128,418.57z"/>
<path id="XMLID_230_" style="opacity:0.72;fill:#A5143A;" d="M650.128,418.57c-0.414,0.448-0.806,0.914-1.212,1.369
	c11.687,17.255,18.445,37.592,18.468,59.376c0.021,18.907-5.062,36.718-14.018,52.393l5.727-0.006
	c10.14-14.805,16.014-32.295,15.993-51.047C675.061,456.978,665.671,435.314,650.128,418.57z"/>
<path id="XMLID_227_" style="fill:#601B23;" d="M663.353,436.623c-3.67-6.479-8.105-12.537-13.224-18.052
	c-5.108,5.526-9.53,11.594-13.185,18.081L663.353,436.623z"/>
<path id="XMLID_219_" style="fill:none;stroke:#601B23;stroke-width:6;stroke-linecap:round;stroke-linejoin:round;stroke-miterlimit:10;" d="
	M641.409,531.721c-10.172-14.782-16.084-32.261-16.104-51.012c-0.026-23.677,9.317-45.361,24.824-62.139
	c15.543,16.744,24.933,38.408,24.958,62.085c0.02,18.751-5.853,36.242-15.994,51.047L641.409,531.721z"/>
<line id="XMLID_210_" style="fill:none;stroke:#601B23;stroke-width:4;stroke-linecap:round;stroke-linejoin:round;stroke-miterlimit:10;" x1="633.807" y1="518.493" x2="666.665" y2="518.457"/>
<path id="XMLID_228_" style="opacity:0.41;fill:#FFFFFF;" d="M463.75,326.375c0,0,6.75-10.708,29.917-28.708
	c-10.667,14.5-12.75,23.583-13.5,24.333C473.37,323.301,463.75,326.375,463.75,326.375z"/>
</svg>
