<?xml version="1.0"?>
<svg xmlns="http://www.w3.org/2000/svg" xmlns:xlink="http://www.w3.org/1999/xlink" xmlns:svgjs="http://svgjs.com/svgjs" version="1.1" width="512" height="512" x="0" y="0" viewBox="0 0 512 512" style="enable-background:new 0 0 512 512" xml:space="preserve" class=""><g><g xmlns="http://www.w3.org/2000/svg"><g><path d="m161.434 198.577-34.901 47.603c-13.243 18.063-9.617 43.399 8.161 57.022l29.2 22.376c10.266 7.867 25.097.547 25.097-12.387v-60.055l10.179-54.422z" fill="#fcd87a" data-original="#4a80aa" style="" class=""/><path d="m323.221 253.137v60.055c0 12.934 14.831 20.254 25.097 12.387l29.199-22.376c17.778-13.623 21.404-38.959 8.161-57.022l-34.901-47.603h-43.809z" fill="#fcd87a" data-original="#4a80aa" style="" class=""/><path d="m504.5 422.632c0 28.46-14.62 53.49-36.76 68.01-12.78 8.38-28.07 13.26-44.51 13.26h-334.46c-44.89 0-81.27-36.38-81.27-81.27 0-44.88 36.38-81.26 81.27-81.26 30.61 0 57.25 16.93 71.11 41.93 2.65-4.14 6.3-7.59 10.6-10 4.3-2.42 9.26-3.79 14.55-3.79 7.7 0 14.71 2.92 20 7.7v-27.74c0-15.47 11.78-28.2 26.86-29.69v-83.22h48.22v83.22c15.08 1.49 26.86 14.22 26.86 29.69v27.74c2.65-2.39 5.72-4.31 9.1-5.64 3.37-1.33 7.05-2.06 10.9-2.06 10.56 0 19.83 5.49 25.14 13.77 0 .01.01.01.01.02 13.86-25 40.5-41.93 71.11-41.93 16.17 0 31.23 4.72 43.89 12.85.04.03.08.06.12.08 22.42 14.47 37.26 39.66 37.26 68.33z" fill="#f9f6f9" data-original="#f9f6f9" style="" class=""/><g fill="#dddaec"><path d="m256.63 236.562v83.22c-15.08 1.49-26.86 14.22-26.86 29.69v78.981c0 6.832-5.538 12.37-12.37 12.37-6.832 0-12.37-5.538-12.37-12.37v-78.981c0-15.47 11.78-28.2 26.86-29.69v-83.22z" fill="#dddaec" data-original="#dddaec" style="" class=""/><path d="m177.78 503.906h-89.01c-44.88 0-81.27-36.38-81.27-81.27 0-44.88 36.39-81.26 81.27-81.26 16.43 0 31.72 4.88 44.5 13.27-22.14 14.51-36.76 39.54-36.76 67.99 0 44.89 36.39 81.27 81.27 81.27z" fill="#dddaec" data-original="#dddaec" style="" class=""/><path d="m449.07 499.702c-8.12 2.73-16.8 4.2-25.84 4.2-44.88 0-81.27-36.38-81.27-81.27 0-14.27 3.68-27.68 10.14-39.33 0-.01.01-.01.01-.02 0 .01.01.01.01.02 13.86-25 40.5-41.93 71.11-41.93 9.04 0 17.73 1.47 25.84 4.2-19.38 6.5-35.49 20.11-45.26 37.73 0-.01-.01-.01-.01-.02 0 .01-.01.01-.01.02-6.46 11.65-10.14 25.06-10.14 39.33 0 35.85 23.21 66.27 55.42 77.07z" fill="#dddaec" data-original="#dddaec" style="" class=""/></g><path d="m235.378 20.019-72.334 124.302c-9.687 16.647-10.293 37.064-1.61 54.256l27.557 54.56h134.23l27.557-54.56c8.683-17.192 8.077-37.609-1.61-54.256l-72.334-124.302c-9.249-15.893-32.208-15.893-41.456 0z" fill="#e28086" data-original="#e28086" style="" class=""/><path d="m256.104 8.101c-3.31 0-6.62 3.97-8.52 11.92l-29.75 124.3c-3.98 16.65-4.23 37.06-.66 54.26l11.33 54.55h-39.51l-27.56-54.55c-8.68-17.2-8.08-37.61 1.61-54.26l72.33-124.3c4.63-7.95 12.68-11.92 20.73-11.92z" fill="#dd636e" data-original="#dd636e" style="" class=""/><circle cx="256.106" cy="148.575" fill="#f9f6f9" r="50.134" data-original="#f9f6f9" style="" class=""/><path d="m270.702 196.555c-4.62 1.41-9.52 2.16-14.59 2.16-27.69 0-50.14-22.45-50.14-50.14s22.45-50.13 50.14-50.13c5.07 0 9.97.75 14.59 2.16-20.57 6.24-35.55 25.35-35.55 47.97s14.98 41.74 35.55 47.98z" fill="#dddaec" data-original="#dddaec" style="" class=""/></g><g><path d="m130.132 309.156 29.199 22.375c4.136 3.169 9.056 4.79 14.025 4.79 3.479 0 6.983-.795 10.255-2.41 7.944-3.921 12.879-11.86 12.879-20.719v-52.559h119.23v52.559c0 8.859 4.935 16.798 12.879 20.719 3.272 1.615 6.775 2.41 10.255 2.41 4.968 0 9.889-1.621 14.025-4.79l29.199-22.375c10.165-7.789 16.762-19.061 18.576-31.737 1.814-12.677-1.357-25.346-8.929-35.673l-32.297-44.052c7.747-18.545 6.434-39.58-3.777-57.144l-32.92-56.57c-2.083-3.58-6.675-4.793-10.255-2.71s-4.793 6.675-2.71 10.255l32.918 56.567c8.439 14.515 8.962 32.123 1.399 47.099l-25.479 50.441h-125l-25.479-50.441c-7.563-14.977-7.04-32.584 1.397-47.097l72.341-124.301c2.986-5.132 8.31-8.196 14.242-8.196s11.256 3.064 14.243 8.197l24.47 42.05c2.083 3.58 6.675 4.792 10.255 2.71 3.58-2.083 4.793-6.674 2.71-10.255l-24.469-42.049c-5.703-9.802-15.874-15.653-27.208-15.653s-21.506 5.852-27.208 15.653l-72.342 124.303c-10.21 17.562-11.523 38.597-3.775 57.142l-32.296 44.051c-7.572 10.328-10.743 22.997-8.929 35.673 1.815 12.676 8.412 23.948 18.576 31.737zm221.827-96.283 27.671 37.742c10.747 14.659 7.753 35.579-6.675 46.635l-29.199 22.375c-2.504 1.919-5.688 2.231-8.517.835s-4.518-4.114-4.518-7.269v-58.274zm-219.377 37.742 27.67-37.741 21.239 42.046v58.272c0 3.155-1.689 5.872-4.518 7.269-2.828 1.396-6.014 1.084-8.517-.835l-29.199-22.375c-14.428-11.057-17.423-31.978-6.675-46.636z" fill="#482ff7" data-original="#000000" style="" class=""/><path d="m256.105 90.941c-31.779 0-57.634 25.854-57.634 57.634s25.854 57.634 57.634 57.634 57.634-25.854 57.634-57.634-25.854-57.634-57.634-57.634zm0 100.268c-23.508 0-42.634-19.125-42.634-42.634s19.125-42.634 42.634-42.634 42.634 19.125 42.634 42.634-19.125 42.634-42.634 42.634z" fill="#482ff7" data-original="#000000" style="" class=""/><path d="m423.23 333.873c-28.755 0-55.533 13.952-72.099 36.999-6.651-5.663-15.149-8.859-24.161-8.859-4.301 0-8.501.724-12.5 2.15v-14.69c0-16.943-11.154-31.329-26.86-35.859v-31.651c0-4.142-3.358-7.5-7.5-7.5s-7.5 3.358-7.5 7.5v37.82c0 3.856 2.925 7.084 6.763 7.464 11.458 1.132 20.098 10.688 20.098 22.227l-.002 60.901c0 4.142 3.358 7.5 7.5 7.5s7.5-3.358 7.5-7.5v-29.505c1.363-.924 2.811-1.713 4.354-2.32 2.584-1.02 5.326-1.537 8.148-1.537 6.263 0 12.111 2.587 16.297 7.069-5.765 11.961-8.8 25.187-8.8 38.555 0 4.142 3.358 7.5 7.5 7.5s7.5-3.358 7.5-7.5c0-12.439 3.153-24.725 9.114-35.545.031-.052.069-.099.098-.153 13.017-23.48 37.751-38.066 64.55-38.066 40.677 0 73.77 33.088 73.77 73.76 0 40.677-33.093 73.77-73.77 73.77h-334.46c-40.677 0-73.77-33.093-73.77-73.77 0-13.918 3.896-27.468 11.268-39.186 2.206-3.506 1.152-8.136-2.354-10.342-3.506-2.207-8.137-1.152-10.342 2.354-8.879 14.113-13.572 30.425-13.572 47.173 0 48.948 39.822 88.77 88.77 88.77h334.46c48.948 0 88.77-39.822 88.77-88.77 0-48.942-39.822-88.759-88.77-88.759z" fill="#482ff7" data-original="#000000" style="" class=""/><path d="m44.567 363.564c12.825-9.611 28.11-14.691 44.203-14.691 26.799 0 51.533 14.586 64.55 38.066.009.017.022.031.031.048 5.998 10.844 9.17 23.17 9.17 35.648 0 4.142 3.358 7.5 7.5 7.5s7.5-3.358 7.5-7.5c0-13.363-3.033-26.584-8.794-38.541 1.577-1.683 3.41-3.125 5.431-4.257 3.285-1.849 7.044-2.826 10.872-2.826 4.492 0 8.826 1.366 12.502 3.857v29.504c0 4.142 3.358 7.5 7.5 7.5s7.5-3.358 7.5-7.5l-.002-60.901c0-11.539 8.64-21.095 20.098-22.227 3.837-.379 6.762-3.607 6.762-7.464v-37.82c0-4.142-3.358-7.5-7.5-7.5s-7.5 3.358-7.5 7.5v31.651c-15.706 4.53-26.86 18.916-26.86 35.859v14.69c-3.977-1.413-8.198-2.151-12.5-2.151-6.399 0-12.702 1.644-18.217 4.748-2.107 1.181-4.095 2.567-5.933 4.128-16.565-23.059-43.348-37.016-72.11-37.016-19.361 0-37.757 6.117-53.198 17.688-3.315 2.484-3.988 7.185-1.504 10.499 2.484 3.319 7.185 3.992 10.499 1.508z" fill="#482ff7" data-original="#000000" style="" class=""/><path d="m248.605 345.669v95.154c0 4.142 3.358 7.5 7.5 7.5s7.5-3.358 7.5-7.5v-95.154c0-4.142-3.358-7.5-7.5-7.5s-7.5 3.358-7.5 7.5z" fill="#482ff7" data-original="#000000" style="" class=""/></g></g></g></svg>
