<svg id="Layer_1" enable-background="new 0 0 256 256" height="512" viewBox="0 0 256 256" width="512" xmlns="http://www.w3.org/2000/svg"><g><g><g><path d="m32.035 181.78c-7.535 0-13.665-6.13-13.665-13.665v-123.776c0-7.535 6.13-13.665 13.665-13.665h191.931c7.535 0 13.665 6.13 13.665 13.665v123.776c0 7.535-6.13 13.665-13.665 13.665z" fill="#63bce7"/></g></g><g><g><path d="m229.221 168.115c0 2.891-2.365 5.256-5.256 5.256h-191.93c-2.891 0-5.256-2.365-5.256-5.256v-123.777c0-2.891 2.365-5.256 5.256-5.256h191.931c2.891 0 5.256 2.365 5.256 5.256v123.777z" fill="#f8af23"/></g></g><g><g><path d="m35.22 39.079v134.293h-3.185c-2.891 0-5.256-2.365-5.256-5.256v-123.781c0-2.891 2.365-5.256 5.256-5.256z" fill="#f87023"/></g></g><g><g><path d="m220.78 39.079v134.293h3.185c2.891 0 5.256-2.365 5.256-5.256v-123.781c0-2.891-2.365-5.256-5.256-5.256z" fill="#f8d323"/></g></g><g><g><path d="m89.809 203.938h76.383v9.197h-76.383z" fill="#63bce7"/></g></g><g><g><path d="m100.67 181.78h54.659v22.158h-54.659z" fill="#f46275"/></g></g><g><g><path d="m89.809 203.939h8.441v9.197h-8.441z" fill="#6377e7"/></g></g><g><g><path d="m155.33 181.78h-54.659v.001h-.001v22.158h8.441v-13.718h46.219z" fill="#f43075"/></g></g><g><g><g><path d="m45.706 53.155c0 2.467-2 4.467-4.467 4.467-2.467 0-4.467-2-4.467-4.467 0-2.467 2-4.467 4.467-4.467 2.466-.001 4.467 1.999 4.467 4.467z" fill="#f46275"/></g></g><g><g><path d="m59.465 53.155c0 2.467-2 4.467-4.467 4.467-2.467 0-4.467-2-4.467-4.467 0-2.467 2-4.467 4.467-4.467 2.467-.001 4.467 1.999 4.467 4.467z" fill="#f46275"/></g></g><g><g><path d="m73.224 53.155c0 2.467-2 4.467-4.467 4.467-2.467 0-4.467-2-4.467-4.467 0-2.467 2-4.467 4.467-4.467 2.467-.001 4.467 1.999 4.467 4.467z" fill="#f46275"/></g></g></g><g><g><path d="m128.861 187.112v19.828c0 3.408 2.788 6.196 6.196 6.196h49.214 10.847 12.23c3.407 0 6.196-2.788 6.196-6.196v-19.828z" fill="#63bce7"/></g></g><g><g><path d="m207.348 77.774h-72.291c-3.408 0-6.196 2.788-6.196 6.196v15.769 10.845 76.529h84.683v-103.143c0-3.408-2.79-6.196-6.196-6.196z" fill="#f46275"/></g></g><g><g><path d="m143.491 77.775c-3.41 0-6.19 2.79-6.19 6.2v103.14h-8.44v-103.14c0-3.41 2.78-6.2 6.19-6.2z" fill="#f43075"/></g></g><g><g><path d="m213.544 83.975v103.14h-8.44v-109.34h2.23c3.41 0 6.21 2.79 6.21 6.2z" fill="#f48875"/></g></g><g><g><path d="m137.301 187.115v26.02h-2.25c-3.41 0-6.19-2.79-6.19-6.19v-19.83z" fill="#6377e7"/></g></g><g><g><path d="m213.544 187.115v19.83c0 3.4-2.79 6.19-6.2 6.19h-2.24v-26.02z" fill="#63e2e7"/></g></g><g><g><path d="m175.375 200.233c0 2.303-1.868 4.172-4.174 4.172-2.304 0-4.172-1.87-4.172-4.172 0-2.304 1.868-4.172 4.172-4.172 2.305 0 4.174 1.868 4.174 4.172z" fill="#f46275"/></g></g><g><g><path d="m199.225 100.612c0 1.876-1.535 3.412-3.412 3.412h-49.127c-1.876 0-3.412-1.535-3.412-3.412v-2.729c0-1.876 1.535-3.412 3.412-3.412h49.127c1.876 0 3.412 1.535 3.412 3.412z" fill="#f8af23"/></g></g><g><g><path d="m199.225 119.115c0 1.876-1.535 3.412-3.412 3.412h-49.127c-1.876 0-3.412-1.535-3.412-3.412v-2.729c0-1.876 1.535-3.412 3.412-3.412h49.127c1.876 0 3.412 1.535 3.412 3.412z" fill="#f8af23"/></g></g><g><g><path d="m199.225 137.617c0 1.876-1.535 3.412-3.412 3.412h-49.127c-1.876 0-3.412-1.535-3.412-3.412v-2.729c0-1.876 1.535-3.412 3.412-3.412h49.127c1.876 0 3.412 1.535 3.412 3.412z" fill="#f8af23"/></g></g><g><g><path d="m143.275 149.507h55.95v25.757h-55.95z" fill="#63bce7"/></g></g><g><g><path d="m143.275 175.264 27.975-22.918 27.975 22.918z" fill="#f8af23"/></g></g><g><g><path d="m184.665 163.336 7.168-5.872 7.392 6.055v11.745z" fill="#f46275"/></g></g><g><g><path d="m54.197 77.823h55.95v25.757h-55.95z" fill="#63bce7"/></g></g><g><g><path d="m54.197 103.581 27.975-22.918 27.975 22.918z" fill="#f8af23"/></g></g><g><g><path d="m95.587 91.653 7.168-5.873 7.392 6.056v11.745z" fill="#f46275"/></g></g><g><g><path d="m110.147 121.476c0 1.876-1.535 3.412-3.412 3.412h-49.127c-1.876 0-3.412-1.535-3.412-3.412v-2.729c0-1.876 1.535-3.412 3.412-3.412h49.127c1.876 0 3.412 1.535 3.412 3.412z" fill="#63bce7"/></g></g><g><g><path d="m110.147 139.978c0 1.876-1.535 3.412-3.412 3.412h-49.127c-1.876 0-3.412-1.535-3.412-3.412v-2.729c0-1.876 1.535-3.412 3.412-3.412h49.127c1.876 0 3.412 1.535 3.412 3.412z" fill="#63bce7"/></g></g><g><g><path d="m110.147 158.481c0 1.876-1.535 3.412-3.412 3.412h-49.127c-1.876 0-3.412-1.535-3.412-3.412v-2.729c0-1.876 1.535-3.412 3.412-3.412h49.127c1.876 0 3.412 1.535 3.412 3.412z" fill="#63bce7"/></g></g><g><g><g><path d="m35.768 213.137c0-.829-.672-1.5-1.5-1.5h-8.344c-.828 0-1.5.671-1.5 1.5s.672 1.5 1.5 1.5h8.344c.828 0 1.5-.672 1.5-1.5z" fill="#231f20"/></g></g><g><g><path d="m230.076 211.637h-8.346c-.828 0-1.5.671-1.5 1.5s.672 1.5 1.5 1.5h8.346c.828 0 1.5-.671 1.5-1.5s-.672-1.5-1.5-1.5z" fill="#231f20"/></g></g><g><g><path d="m202.869 223.826h-148.726c-.828 0-1.5.671-1.5 1.5s.672 1.5 1.5 1.5h148.727c.828 0 1.5-.671 1.5-1.5s-.673-1.5-1.501-1.5z" fill="#231f20"/></g></g><g><g><path d="m45.133 223.826h-8.344c-.828 0-1.5.671-1.5 1.5s.672 1.5 1.5 1.5h8.344c.828 0 1.5-.671 1.5-1.5s-.672-1.5-1.5-1.5z" fill="#231f20"/></g></g><g><g><path d="m220.428 223.826h-8.346c-.828 0-1.5.671-1.5 1.5s.672 1.5 1.5 1.5h8.346c.828 0 1.5-.671 1.5-1.5s-.672-1.5-1.5-1.5z" fill="#231f20"/></g></g><g><g><path d="m223.966 29.174h-191.932c-8.361 0-15.164 6.803-15.164 15.165v123.776c0 8.362 6.803 15.165 15.164 15.165h67.137v19.158h-9.362c-.828 0-1.5.671-1.5 1.5v7.699h-44.233c-.828 0-1.5.671-1.5 1.5s.672 1.5 1.5 1.5h90.98 72.291 5.588c.828 0 1.5-.671 1.5-1.5 0-.674-.448-1.237-1.059-1.427 1.041-1.313 1.667-2.968 1.667-4.77v-18.328-3-2.333h8.922c8.361 0 15.164-6.803 15.164-15.165v-123.775c.001-8.362-6.802-15.165-15.163-15.165zm-121.795 154.106h25.19v2.333 3 13.826h-25.19zm105.177-107.006h-72.291c-4.243 0-7.695 3.453-7.695 7.696v87.9h-95.328c-2.07 0-3.755-1.685-3.755-3.755v-123.777c0-2.071 1.685-3.755 3.755-3.755h191.932c2.07 0 3.755 1.685 3.755 3.755v123.777c0 2.071-1.685 3.755-3.755 3.755h-8.922v-87.9c0-4.243-3.452-7.696-7.696-7.696zm-116.039 129.164h9.362 26.69v1.502c0 1.768.605 3.394 1.611 4.695h-37.663zm120.735 1.502c0 2.589-2.106 4.696-4.696 4.696h-72.291c-2.589 0-4.695-2.107-4.695-4.696v-18.328h81.683v18.328zm-81.683-21.328v-101.642c0-2.589 2.106-4.696 4.695-4.696h72.291c2.59 0 4.696 2.107 4.696 4.696v101.642zm105.769-17.497c0 6.708-5.457 12.165-12.164 12.165h-8.922v-5.409h8.922c3.725 0 6.755-3.03 6.755-6.755v-123.778c0-3.725-3.03-6.755-6.755-6.755h-191.932c-3.725 0-6.755 3.03-6.755 6.755v123.777c0 3.725 3.03 6.755 6.755 6.755h95.327v5.409h-26.69-68.637c-6.707 0-12.164-5.457-12.164-12.165v-123.775c0-6.708 5.457-12.165 12.164-12.165h191.932c6.707 0 12.164 5.457 12.164 12.165z" fill="#231f20"/></g></g><g><g><path d="m41.238 59.122c3.29 0 5.967-2.677 5.967-5.967s-2.677-5.967-5.967-5.967c-3.291 0-5.968 2.677-5.968 5.967s2.677 5.967 5.968 5.967zm0-8.934c1.636 0 2.967 1.331 2.967 2.967s-1.331 2.967-2.967 2.967c-1.637 0-2.968-1.331-2.968-2.967s1.332-2.967 2.968-2.967z" fill="#231f20"/></g></g><g><g><path d="m54.997 59.122c3.291 0 5.968-2.677 5.968-5.967s-2.677-5.967-5.968-5.967c-3.29 0-5.967 2.677-5.967 5.967s2.677 5.967 5.967 5.967zm0-8.934c1.637 0 2.968 1.331 2.968 2.967s-1.331 2.967-2.968 2.967c-1.636 0-2.967-1.331-2.967-2.967s1.331-2.967 2.967-2.967z" fill="#231f20"/></g></g><g><g><path d="m68.757 59.122c3.291 0 5.968-2.677 5.968-5.967s-2.677-5.967-5.968-5.967c-3.29 0-5.967 2.677-5.967 5.967s2.677 5.967 5.967 5.967zm0-8.934c1.637 0 2.968 1.331 2.968 2.967s-1.331 2.967-2.968 2.967c-1.636 0-2.967-1.331-2.967-2.967s1.331-2.967 2.967-2.967z" fill="#231f20"/></g></g><g><g><path d="m219.208 65.872c0-.829-.672-1.5-1.5-1.5h-180.937c-.828 0-1.5.671-1.5 1.5s.672 1.5 1.5 1.5h180.938c.827 0 1.499-.672 1.499-1.5z" fill="#231f20"/></g></g><g><g><path d="m171.201 205.905c3.129 0 5.674-2.544 5.674-5.672s-2.545-5.672-5.674-5.672c-3.128 0-5.672 2.544-5.672 5.672s2.544 5.672 5.672 5.672zm0-8.344c1.475 0 2.674 1.199 2.674 2.672s-1.199 2.672-2.674 2.672c-1.474 0-2.672-1.199-2.672-2.672s1.199-2.672 2.672-2.672z" fill="#231f20"/></g></g><g><g><path d="m195.813 92.971h-49.127c-2.709 0-4.912 2.203-4.912 4.912v2.729c0 2.708 2.203 4.912 4.912 4.912h49.127c2.708 0 4.911-2.203 4.911-4.912v-2.729c.001-2.709-2.203-4.912-4.911-4.912zm1.912 7.641c0 1.054-.857 1.912-1.911 1.912h-49.127c-1.055 0-1.912-.857-1.912-1.912v-2.729c0-1.054.857-1.912 1.912-1.912h49.127c1.054 0 1.911.857 1.911 1.912z" fill="#231f20"/></g></g><g><g><path d="m195.813 111.474h-49.127c-2.709 0-4.912 2.203-4.912 4.912v2.729c0 2.708 2.203 4.912 4.912 4.912h49.127c2.708 0 4.911-2.203 4.911-4.912v-2.729c.001-2.709-2.203-4.912-4.911-4.912zm1.912 7.641c0 1.054-.857 1.912-1.911 1.912h-49.127c-1.055 0-1.912-.857-1.912-1.912v-2.729c0-1.054.857-1.912 1.912-1.912h49.127c1.054 0 1.911.857 1.911 1.912z" fill="#231f20"/></g></g><g><g><path d="m195.813 129.977h-49.127c-2.709 0-4.912 2.203-4.912 4.912v2.729c0 2.708 2.203 4.912 4.912 4.912h49.127c2.708 0 4.911-2.203 4.911-4.912v-2.729c.001-2.709-2.203-4.912-4.911-4.912zm1.912 7.64c0 1.054-.857 1.912-1.911 1.912h-49.127c-1.055 0-1.912-.857-1.912-1.912v-2.729c0-1.054.857-1.912 1.912-1.912h49.127c1.054 0 1.911.857 1.911 1.912z" fill="#231f20"/></g></g><g><g><path d="m106.735 113.835h-49.127c-2.708 0-4.911 2.203-4.911 4.912v2.729c0 2.708 2.203 4.912 4.911 4.912h49.127c2.708 0 4.911-2.203 4.911-4.912v-2.729c0-2.709-2.203-4.912-4.911-4.912zm1.911 7.641c0 1.054-.857 1.912-1.911 1.912h-49.127c-1.054 0-1.911-.857-1.911-1.912v-2.729c0-1.054.857-1.912 1.911-1.912h49.127c1.054 0 1.911.857 1.911 1.912z" fill="#231f20"/></g></g><g><g><path d="m106.735 132.337h-49.127c-2.708 0-4.911 2.203-4.911 4.912v2.729c0 2.708 2.203 4.912 4.911 4.912h49.127c2.708 0 4.911-2.203 4.911-4.912v-2.729c0-2.708-2.203-4.912-4.911-4.912zm1.911 7.642c0 1.054-.857 1.912-1.911 1.912h-49.127c-1.054 0-1.911-.857-1.911-1.912v-2.729c0-1.054.857-1.912 1.911-1.912h49.127c1.054 0 1.911.857 1.911 1.912z" fill="#231f20"/></g></g><g><g><path d="m106.735 150.84h-49.127c-2.708 0-4.911 2.203-4.911 4.912v2.729c0 2.708 2.203 4.912 4.911 4.912h49.127c2.708 0 4.911-2.203 4.911-4.912v-2.729c0-2.709-2.203-4.912-4.911-4.912zm1.911 7.641c0 1.054-.857 1.912-1.911 1.912h-49.127c-1.054 0-1.911-.857-1.911-1.912v-2.729c0-1.054.857-1.912 1.911-1.912h49.127c1.054 0 1.911.857 1.911 1.912z" fill="#231f20"/></g></g><g><g><path d="m208.064 54.655h9.644c.828 0 1.5-.671 1.5-1.5s-.672-1.5-1.5-1.5h-9.644c-.828 0-1.5.671-1.5 1.5s.672 1.5 1.5 1.5z" fill="#231f20"/></g></g><g><g><path d="m85.506 57.988h95.825c2.665 0 4.834-2.168 4.834-4.833s-2.169-4.833-4.834-4.833h-95.825c-2.665 0-4.834 2.168-4.834 4.833s2.169 4.833 4.834 4.833zm0-6.667h95.825c1.012 0 1.834.822 1.834 1.833s-.822 1.833-1.834 1.833h-95.825c-1.012 0-1.834-.822-1.834-1.833s.822-1.833 1.834-1.833z" fill="#231f20"/></g></g><g><g><path d="m110.146 76.323h-55.949c-.828 0-1.5.671-1.5 1.5v25.757c0 .829.672 1.5 1.5 1.5h55.949c.828 0 1.5-.671 1.5-1.5v-25.757c0-.828-.671-1.5-1.5-1.5zm-15.504 16.494c0 .001 0 .001 0 0l11.307 9.263h-47.555l23.778-19.479zm3.311-1.164 4.802-3.934 5.892 4.826v7.868zm10.693-2.985-4.941-4.048c-.553-.453-1.348-.453-1.9 0l-6.218 5.094-12.465-10.211c-.097-.08-.209-.128-.319-.18h25.843zm-27.105-9.345c-.11.052-.221.1-.319.18l-25.524 20.91v-21.09z" fill="#231f20"/></g></g><g><g><path d="m199.225 148.007h-55.95c-.828 0-1.5.671-1.5 1.5v25.757c0 .829.672 1.5 1.5 1.5h55.95c.828 0 1.5-.671 1.5-1.5v-25.757c0-.829-.672-1.5-1.5-1.5zm-15.509 16.491c.002.002.005.004.007.006l11.305 9.261h-47.556l23.778-19.479zm3.315-1.162 4.802-3.933 5.892 4.826v7.867zm10.694-2.984-4.941-4.048c-.553-.453-1.348-.453-1.9 0l-6.218 5.094-12.466-10.212c-.097-.08-.208-.128-.318-.179h25.843zm-27.107-9.345c-.11.052-.221.1-.318.179l-25.525 20.911v-21.09z" fill="#231f20"/></g></g></g></g></svg>