<?xml version="1.0" encoding="utf-8"?>
<!-- Generator: Adobe Illustrator 24.0.2, SVG Export Plug-In . SVG Version: 6.00 Build 0)  -->
<svg version="1.1" id="SvgjsSvg1001" xmlns:svgjs="http://svgjs.com/svgjs"
	 xmlns="http://www.w3.org/2000/svg" xmlns:xlink="http://www.w3.org/1999/xlink" x="0px" y="0px" viewBox="0 0 288 288"
	 style="enable-background:new 0 0 288 288;" xml:space="preserve">
<style type="text/css">
	.st0{fill:#6666FF;}
	.st1{fill:#F0EFEF;}
	.st2{fill:#CECCCC;}
	.st3{fill:#E0E0E0;}
	.st4{fill:#FCD87A;stroke:#6666FF;stroke-width:4;stroke-miterlimit:10;}
	.st5{fill:none;stroke:#6666FF;stroke-width:4;stroke-miterlimit:10;}
</style>
<g id="cloud" transform="matrix(0.9167,0,0,0.9167,11.999371788860117,11.994425290679942)">
	<path class="st0" d="M110.3,270.8 M90.9,187.4h7.2 M58.5,187.3H86 M243.7,187.2c24.9-1.4,44.3-22,44.3-46.9
		c0-25.1-19.7-45.7-44.7-46.9c-1.2-25.1-21.9-44.7-47-44.7c-5.1,0-10.2,0.8-15,2.4C167.2,21.5,131.8,8.9,102.2,23
		C89.2,29.1,79,39.7,73.3,52.8c-3.3-0.9-6.8-1.4-10.3-1.4c-22.3,0.1-40.3,18.2-40.3,40.5c0,2.7,0.3,5.4,0.9,8
		c-22.5,13-30.2,41.7-17.2,64.2c8.4,14.5,23.9,23.5,40.7,23.5H53 M210.8,187.2h27.7 M198.9,187.3h6.5 M98.2,182.9H47
		C23.5,183,4.4,164,4.3,140.6C4.2,124.7,13,110.1,27,102.7c0.9-0.5,1.4-1.6,1-2.6c-0.7-2.8-1.1-5.6-1-8.5c0-19.9,16.1-36,36-36
		c3.7-0.1,7.4,0.5,10.9,1.7c1.1,0.4,2.3-0.2,2.7-1.4c11.2-28.2,43.2-41.9,71.4-30.7c13.5,5.4,24.3,15.9,30.1,29.2
		c0.5,1.1,1.7,1.6,2.9,1.2c4.9-1.9,10.1-2.9,15.3-2.8c23.5,0,42.5,19,42.6,42.4c0,1.2,1,2.2,2.2,2.2c23.5,0.8,41.9,20.4,41.2,43.9
		c-0.7,22.4-18.7,40.4-41.2,41.2l0,0.2h-42"/>
	<path class="st1" d="M283.5,140.4c0,23.5-19,42.5-42.5,42.5H199l-6.6,0.2c-6.3-0.2-21.5-0.2-28.2-0.2l-66,0c-6.7,0,74.1,0,55.7,0
		l-55.7,0H47C23.6,183,4.4,164.2,4.2,140.7c-0.1-15.9,8.7-30.5,22.8-37.9c0.9-0.5,1.3-1.6,1-2.6c-0.7-2.8-1.1-5.6-1-8.5
		c0-19.9,16.1-36,36-36c3.7,0,7.4,0.5,10.9,1.7c1.1,0.3,2.3-0.2,2.7-1.3c11.2-28.2,43.2-42,71.4-30.7c13.5,5.4,24.3,15.9,30.1,29.2
		c0.5,1.1,1.7,1.7,2.9,1.2c4.9-1.9,10.1-2.9,15.3-2.9c23.5,0,42.5,19,42.6,42.4c0,1.2,1,2.2,2.2,2.3
		C264.6,97.7,283.6,116.8,283.5,140.4C283.5,140.4,283.5,140.4,283.5,140.4z"/>
	<path class="st2" d="M176.8,52.1c-19.1-23.6-53.7-27.2-77.3-8.2c-7.3,5.9-13,13.7-16.5,22.4c-0.4,1.1-1.6,1.6-2.7,1.3
		c-3.5-1.1-7.2-1.7-10.9-1.7c-19.9,0-36,16.1-36,36c0,2.9,0.3,5.7,1.1,8.5c0.3,1-0.1,2.1-1.1,2.6c-19.7,10.5-27.9,34.5-18.7,54.9
		c-15.3-17.7-13.3-44.4,4.4-59.7c2.4-2.1,5.1-3.9,8-5.4c0.9-0.5,1.3-1.6,1-2.6c-0.7-2.8-1.1-5.6-1-8.5c0-19.9,16.1-36,36-36
		c3.7,0,7.4,0.5,10.9,1.7c1.1,0.3,2.3-0.2,2.7-1.3c11.2-28.2,43.2-42,71.4-30.7c12.5,5,22.8,14.4,28.9,26.5L176.8,52.1z"/>
	<path class="st3" d="M178,54.7c-22.4,0-42.6,13.7-50.8,34.6c-0.4,1.1-1.6,1.6-2.7,1.3c-3.5-1.1-7.2-1.7-10.9-1.7
		c-19.9,0-36,16.1-36,36c0,2.9,0.3,5.7,1.1,8.5c0.3,1-0.1,2.1-1.1,2.6c-13.9,7.4-22.6,21.8-22.5,37.6c0,3.2,0.4,6.4,1.1,9.5h-9
		c-12.5,0-24.3-5.4-32.4-14.9c-9.5-20.5-1.3-44.8,18.7-55.3c0.9-0.5,1.4-1.6,1.1-2.6c-0.7-2.8-1.1-5.6-1.1-8.5
		C33.6,82,49.7,66,69.5,66c3.7,0,7.4,0.5,10.9,1.7c1.1,0.3,2.3-0.2,2.7-1.3c11.2-28.2,43.2-42,71.4-30.8c8.8,3.5,16.5,9.2,22.4,16.5
		L178,54.7z"/>
</g>
<g id="gear">
	<path class="st0" d="M146.9,151.5h-4.2c-3.4,0-6.2-2.8-6.2-6.2v-1.4c-1.4-0.5-2.9-1-4.2-1.7l-1,1c-2.4,2.4-6.4,2.4-8.7,0l-3-3
		c-2.4-2.4-2.4-6.3,0-8.7l1-1c-0.7-1.4-1.3-2.8-1.7-4.2h-1.4c-3.4,0-6.2-2.8-6.2-6.2v-4.2c0-3.4,2.8-6.2,6.2-6.2h1.4
		c0.5-1.4,1-2.9,1.7-4.2l-1-1c-2.4-2.4-2.4-6.4,0-8.7l3-3c2.4-2.4,6.3-2.4,8.7,0l1,1c1.4-0.7,2.8-1.3,4.2-1.7v-1.4
		c0-3.4,2.8-6.2,6.2-6.2h4.2c3.4,0,6.2,2.8,6.2,6.2v1.4c1.4,0.5,2.9,1,4.2,1.7l1-1c2.4-2.4,6.4-2.4,8.7,0l3,3c2.4,2.4,2.4,6.3,0,8.7
		l-1,1c0.7,1.4,1.3,2.8,1.7,4.2h1.4c3.4,0,6.2,2.8,6.2,6.2v4.2c0,3.4-2.8,6.2-6.2,6.2h-1.4c-0.5,1.4-1,2.9-1.7,4.2l1,1
		c2.4,2.4,2.4,6.4,0,8.7l-3,3c-2.4,2.4-6.3,2.4-8.7,0l-1-1c-1.4,0.7-2.8,1.3-4.2,1.7v1.4C153.1,148.7,150.3,151.5,146.9,151.5z
		 M133,138c1.9,1.1,3.9,1.9,6,2.5c0.9,0.2,1.5,1,1.5,1.9v2.9c0,1.2,1,2.2,2.2,2.2h4.2c1.2,0,2.2-1,2.2-2.2v-2.9
		c0-0.9,0.6-1.7,1.5-1.9c2.1-0.5,4.1-1.4,6-2.5c0.8-0.5,1.8-0.3,2.4,0.3l2.1,2.1c0.9,0.9,2.3,0.9,3.2,0l3-3c0.9-0.9,0.9-2.3,0-3.2
		l-2.1-2.1c-0.6-0.6-0.8-1.6-0.3-2.4c1.1-1.9,1.9-3.9,2.5-6c0.2-0.9,1-1.5,1.9-1.5h2.9c1.2,0,2.2-1,2.2-2.2v-4.2
		c0-1.2-1-2.2-2.2-2.2h-2.9c-0.9,0-1.7-0.6-1.9-1.5c-0.5-2.1-1.4-4.1-2.5-6c-0.5-0.8-0.3-1.8,0.3-2.4l2.1-2.1c0.9-0.9,0.9-2.3,0-3.2
		l-3-3c-0.9-0.9-2.3-0.9-3.2,0l-2.1,2.1c-0.6,0.6-1.6,0.8-2.4,0.3c-1.9-1.1-3.9-1.9-6-2.5c-0.9-0.2-1.5-1-1.5-1.9v-2.9
		c0-1.2-1-2.2-2.2-2.2h-4.2c-1.2,0-2.2,1-2.2,2.2v2.9c0,0.9-0.6,1.7-1.5,1.9c-2.1,0.5-4.1,1.4-6,2.5c-0.8,0.5-1.8,0.3-2.4-0.3
		l-2.1-2.1c-0.9-0.9-2.3-0.9-3.2,0l-3,3c-0.9,0.9-0.9,2.3,0,3.2l2.1,2.1c0.6,0.6,0.8,1.6,0.3,2.4c-1.1,1.9-1.9,3.9-2.5,6
		c-0.2,0.9-1,1.5-1.9,1.5h-2.9c-1.2,0-2.2,1-2.2,2.2v4.2c0,1.2,1,2.2,2.2,2.2h2.9c0.9,0,1.7,0.6,1.9,1.5c0.5,2.1,1.4,4.1,2.5,6
		c0.5,0.8,0.3,1.8-0.3,2.4l-2.1,2.1c-0.9,0.9-0.9,2.3,0,3.2l3,3c0.9,0.9,2.3,0.9,3.2,0l2.1-2.1C131.1,137.9,132,137.5,133,138
		L133,138z"/>
	<path class="st0" d="M144.8,132.6c-8,0-14.6-6.5-14.6-14.6s6.5-14.6,14.6-14.6s14.6,6.5,14.6,14.6S152.9,132.6,144.8,132.6z
		 M144.8,107.3c-5.9,0-10.7,4.8-10.7,10.7c0,5.9,4.8,10.7,10.7,10.7c5.9,0,10.7-4.8,10.7-10.7C155.5,112.1,150.7,107.3,144.8,107.3
		L144.8,107.3z"/>
</g>
<g id="arrow3">
	<polygon class="st4" points="70.9,244.5 88.6,234.3 88.6,254.7 	"/>
	<line class="st5" x1="107.2" y1="183.7" x2="107.2" y2="244.5"/>
	<line class="st5" x1="109.2" y1="244.5" x2="88.6" y2="244.5"/>
</g>
<g id="arrow2">
	<line class="st4" x1="207.2" y1="183.9" x2="207.2" y2="215.1"/>
	<line class="st4" x1="205.2" y1="215.1" x2="225.9" y2="215.1"/>
	<polygon class="st4" points="243.5,215.1 225.9,204.9 225.9,225.3 	"/>
</g>
<g id="arrow_1_">
	<polygon class="st4" points="205.2,244.3 187.6,234.1 187.6,254.5 	"/>
	<line class="st5" x1="168.9" y1="183.6" x2="168.9" y2="244.3"/>
	<line class="st5" x1="166.9" y1="244.3" x2="187.6" y2="244.3"/>
</g>
<g id="arrow2_1_">
	<line class="st5" x1="76.2" y1="183.9" x2="76.2" y2="215.1"/>
	<line class="st5" x1="78.2" y1="215.1" x2="57.6" y2="215.1"/>
	<polygon class="st4" points="39.9,215.1 57.6,204.9 57.6,225.3 	"/>
</g>
</svg>
