<svg id="Capa_1" enable-background="new 0 0 512 512" height="512" viewBox="0 0 512 512" width="512" xmlns="http://www.w3.org/2000/svg"><path d="m421 151h-330v270h330zm-220.181 165.835-21.709 20.713-50.01-52.397 52.397-50.01 20.713 21.709-30.688 29.297zm39.405 63.911-28.447-9.492 60-180 28.447 9.492zm91.977-43.198-21.709-20.713 29.297-30.688-30.688-29.297 20.713-21.709 52.397 50.01z"/><path d="m512 0h-512v512h512zm-151 61h30v30h-30zm-60 0h30v30h-30zm150 390h-390v-330h390zm0-360h-30v-30h30z"/></svg>