<svg id="Layer_1" data-name="Layer 1" xmlns="http://www.w3.org/2000/svg" viewBox="0 0 81 71.66"><defs><style>.cls-1{fill:#231f20;}.cls-2{fill:#482ff7;}.cls-3{fill:#142b66;}</style></defs><title>regs-logo</title><g id="logo"><g id="letter"><path class="cls-1" d="M112.5,242.9a26.86,26.86,0,0,1-19.2,25.78l-9.94-16.81H85.6a9,9,0,0,0,0-17.94H49.43L31.5,216H85.6a26.87,26.87,0,0,1,26.9,26.9Z" transform="translate(-31.5 -216)"/><polygon class="cls-2" points="24.41 22.08 49.57 71.44 66.93 71.46 41.76 22.1 24.41 22.08"/></g><g id="tag"><polygon class="cls-3" points="32.65 71.66 18.39 71.66 3.89 55.33 2.39 48.45 2.47 48.29 11.91 48.29 32.65 71.66"/><polygon class="cls-3" points="20.98 35.77 13.37 49.94 8 59.95 3.89 55.33 2.39 48.45 2.47 48.29 17.58 20.18 20.98 35.77"/></g></g></svg>